<?xml version="1.0" encoding="utf-8"?>
<svg version="1.1" xmlns:xlink="http://www.w3.org/1999/xlink" width="11px" height="16px" xmlns="http://www.w3.org/2000/svg">
  <g transform="matrix(1 0 0 1 -492 -310 )">
    <path d="M 11 8  C 11 8.17204301075269  10.9327541827542 8.32092638544251  10.7982625482625 8.44665012406948  L 2.91988416988417 15.8114143920596  C 2.78539253539254 15.9371381306865  2.62612612612613 16  2.44208494208494 16  C 2.25804375804376 16  2.09877734877735 15.9371381306865  1.96428571428571 15.8114143920596  L 0.201737451737452 14.1637717121588  C 0.0672458172458174 14.0380479735318  0 13.889164598842  0 13.7171215880893  C 0 13.5450785773366  0.0672458172458174 13.3961952026468  0.201737451737452 13.2704714640199  L 5.83976833976834 8  L 0.201737451737452 2.72952853598015  C 0.0672458172458174 2.60380479735318  0 2.45492142266336  0 2.28287841191067  C 0 2.11083540115798  0.0672458172458174 1.96195202646815  0.201737451737452 1.83622828784119  L 1.96428571428571 0.188585607940446  C 2.09877734877735 0.0628618693134815  2.25804375804376 0  2.44208494208494 0  C 2.62612612612613 0  2.78539253539254 0.0628618693134815  2.91988416988417 0.188585607940446  L 10.7982625482625 7.55334987593052  C 10.9327541827542 7.67907361455748  11 7.82795698924731  11 8  Z " fill-rule="nonzero" fill="#aaaaaa" stroke="none" transform="matrix(1 0 0 1 492 310 )" />
  </g>
</svg>