<?xml version="1.0" encoding="utf-8"?>
<svg version="1.1" xmlns:xlink="http://www.w3.org/1999/xlink" width="16px" height="16px" viewBox="291 1179  16 16" xmlns="http://www.w3.org/2000/svg">
  <path d="M 299 1179  C 303.48 1179  307 1182.52  307 1187  C 307 1191.48  303.48 1195  299 1195  C 294.52 1195  291 1191.48  291 1187  C 291 1182.52  294.52 1179  299 1179  Z " fill-rule="nonzero" fill="#f0f0f0" stroke="none" />
  <path d="M 299 1179.5  C 303.2 1179.5  306.5 1182.8  306.5 1187  C 306.5 1191.2  303.2 1194.5  299 1194.5  C 294.8 1194.5  291.5 1191.2  291.5 1187  C 291.5 1182.8  294.8 1179.5  299 1179.5  Z " stroke-width="1" stroke="#797979" fill="none" />
  <path d="M 299 1191  C 296.76 1191  295 1189.24  295 1187  C 295 1184.76  296.76 1183  299 1183  C 301.24 1183  303 1184.76  303 1187  C 303 1189.24  301.24 1191  299 1191  " fill-rule="nonzero" fill="#797979" stroke="none" />
</svg>