<?xml version="1.0" encoding="utf-8"?>
<svg version="1.1" xmlns:xlink="http://www.w3.org/1999/xlink" width="16px" height="16px" viewBox="216 1179  16 16" xmlns="http://www.w3.org/2000/svg">
  <path d="M 224 1179  C 228.48 1179  232 1182.52  232 1187  C 232 1191.48  228.48 1195  224 1195  C 219.52 1195  216 1191.48  216 1187  C 216 1182.52  219.52 1179  224 1179  Z " fill-rule="nonzero" fill="#f0f0f0" stroke="none" />
  <path d="M 224 1179.5  C 228.2 1179.5  231.5 1182.8  231.5 1187  C 231.5 1191.2  228.2 1194.5  224 1194.5  C 219.8 1194.5  216.5 1191.2  216.5 1187  C 216.5 1182.8  219.8 1179.5  224 1179.5  Z " stroke-width="1" stroke="#797979" fill="none" />
  <path d="M 224 1191  C 221.76 1191  220 1189.24  220 1187  C 220 1184.76  221.76 1183  224 1183  C 226.24 1183  228 1184.76  228 1187  C 228 1189.24  226.24 1191  224 1191  " fill-rule="nonzero" fill="#797979" stroke="none" />
</svg>