<?xml version="1.0" encoding="utf-8"?>
<svg version="1.1" xmlns:xlink="http://www.w3.org/1999/xlink" width="16px" height="16px" viewBox="291 1189  16 16" xmlns="http://www.w3.org/2000/svg">
  <path d="M 299 1189  C 303.48 1189  307 1192.52  307 1197  C 307 1201.48  303.48 1205  299 1205  C 294.52 1205  291 1201.48  291 1197  C 291 1192.52  294.52 1189  299 1189  Z " fill-rule="nonzero" fill="#ffffff" stroke="none" />
  <path d="M 299 1189.5  C 303.2 1189.5  306.5 1192.8  306.5 1197  C 306.5 1201.2  303.2 1204.5  299 1204.5  C 294.8 1204.5  291.5 1201.2  291.5 1197  C 291.5 1192.8  294.8 1189.5  299 1189.5  Z " stroke-width="1" stroke="#797979" fill="none" />
  <path d="M 299 1201  C 296.76 1201  295 1199.24  295 1197  C 295 1194.76  296.76 1193  299 1193  C 301.24 1193  303 1194.76  303 1197  C 303 1199.24  301.24 1201  299 1201  " fill-rule="nonzero" fill="#797979" stroke="none" />
</svg>