<?xml version="1.0" encoding="utf-8"?>
<svg version="1.1" xmlns:xlink="http://www.w3.org/1999/xlink" width="20px" height="20px" xmlns="http://www.w3.org/2000/svg">
  <g transform="matrix(1 0 0 1 -7 -119 )">
    <path d="M 4.460546875 7.19296874727845  C 5.621484375 6.10820312268889  7.098046875 5.36367187297059  8.740234375 5.10742187306754  L 6.03984375 0.607031249770322  C 5.81399225382225 0.230446587878981  5.40708707798892 0  4.96796875 0  L 0.626171875 0  C 0.1203125 0  -0.17578125 0.569140624784659  0.1140625 0.983593749627845  L 4.460546875 7.19296874727845  Z M 19.8859375 0.983593749627845  C 20.17578125 0.569140624784659  19.8796875 0  19.373828125 0  L 15.03203125 0  C 14.59296875 0  14.1859375 0.230468749912799  13.96015625 0.607031249770322  L 11.259765625 5.10742187306754  C 12.901953125 5.36367187297059  14.378515625 6.10820312268889  15.539453125 7.1925781222786  L 19.8859375 0.983593749627845  Z M 16.875 13.124999995034  C 16.875 9.32812499647059  13.796875 6.24999999763524  10 6.24999999763524  C 6.203125 6.24999999763524  3.125 9.32812499647059  3.125 13.124999995034  C 3.125 16.9218749935974  6.203125 19.9999999924328  10 19.9999999924328  C 13.796875 19.9999999924328  16.875 16.9218749935974  16.875 13.124999995034  Z M 10 13.124999995034  L 10 19.9999999924328  C 10.0000450228474 20.0002633760897  10 13.124999995034  10 13.124999995034  Z " fill-rule="nonzero" fill="#946c37" stroke="none" transform="matrix(1 0 0 1 7 119 )" />
  </g>
</svg>