<?xml version="1.0" encoding="utf-8"?>
<svg version="1.1" xmlns:xlink="http://www.w3.org/1999/xlink" width="13px" height="12px" xmlns="http://www.w3.org/2000/svg">
  <g transform="matrix(1 0 0 1 -261 -184 )">
    <path d="M 1.31625 4.92307692307692  C 1.417 3.29230769230769  2.30425 1.86461538461538  3.627 0.972307692307692  L 2.6975 0.0923076923076923  C 1.14075 1.21538461538462  0.11375 2.95076923076923  0.0162499999999999 4.92307692307692  L 1.31625 4.92307692307692  Z M 9.37625 0.969230769230769  C 10.69575 1.86461538461538  11.583 3.29230769230769  11.68375 4.92307692307692  L 12.98375 4.92307692307692  C 12.88625 2.95076923076923  11.85925 1.21538461538462  10.3025 0.0923076923076925  L 9.37625 0.969230769230769  Z M 10.4 8.30769230769231  L 10.4 5.23076923076923  C 10.4 3.33846153846154  9.33725 1.76  7.475 1.34153846153846  L 7.475 0.923076923076923  C 7.475 0.412307692307692  7.0395 0  6.5 0  C 5.9605 0  5.525 0.412307692307692  5.525 0.923076923076923  L 5.525 1.34153846153846  C 3.66275 1.76  2.6 3.33846153846154  2.6 5.23076923076923  L 2.6 8.30769230769231  L 1.3 9.53846153846154  L 1.3 10  L 11.7 10  L 11.7 9.53846153846154  L 10.4 8.30769230769231  Z M 5.2 10.7692307692308  C 5.2 11.4492307692308  5.78175 12  6.5 12  C 6.591 12  6.67875 11.9907692307692  6.76325 11.9753846153846  C 7.18575 11.8923076923077  7.5335 11.6153846153846  7.69925 11.2492307692308  C 7.76425 11.1015384615385  7.8 10.9415384615385  7.8 10.7692307692308  L 5.2 10.7692307692308  Z " fill-rule="nonzero" fill="#ffffff" stroke="none" transform="matrix(1 0 0 1 261 184 )" />
  </g>
</svg>