<?xml version="1.0" encoding="utf-8"?>
<svg version="1.1" xmlns:xlink="http://www.w3.org/1999/xlink" width="18px" height="18px" xmlns="http://www.w3.org/2000/svg">
  <g transform="matrix(1 0 0 1 -1479 -261 )">
    <path d="M 1.63636363636364 16.3636363636364  L 1.63636363636364 3.27272727272727  L 0 3.27272727272727  L 0 16.3636363636364  C 0 17.2677272727273  0.732272727272727 18  1.63636363636364 18  L 14.7272727272727 18  L 14.7272727272727 16.3636363636364  L 1.63636363636364 16.3636363636364  Z M 18 1.63636363636364  C 18 0.732272727272727  17.2677272727273 0  16.3636363636364 0  L 4.90909090909091 0  C 4.005 0  3.27272727272727 0.732272727272727  3.27272727272727 1.63636363636364  L 3.27272727272727 13.0909090909091  C 3.27272727272727 13.995  4.005 14.7272727272727  4.90909090909091 14.7272727272727  L 16.3636363636364 14.7272727272727  C 17.2677272727273 14.7272727272727  18 13.995  18 13.0909090909091  L 18 1.63636363636364  Z M 16.3636363636364 1.63636363636364  L 16.3636363636364 13  L 5 13  L 5 1.63636363636364  L 16.3636363636364 1.63636363636364  Z " fill-rule="nonzero" fill="#ffffff" stroke="none" transform="matrix(1 0 0 1 1479 261 )" />
  </g>
</svg>