<?xml version="1.0" encoding="utf-8"?>
<svg version="1.1" xmlns:xlink="http://www.w3.org/1999/xlink" width="12px" height="12px" xmlns="http://www.w3.org/2000/svg">
  <g transform="matrix(1 0 0 1 -235 -43 )">
    <path d="M 1.215 4.92307692307692  C 1.308 3.29230769230769  2.127 1.86461538461538  3.348 0.972307692307692  L 2.49 0.0923076923076923  C 1.053 1.21538461538462  0.105 2.95076923076923  0.0149999999999999 4.92307692307692  L 1.215 4.92307692307692  Z M 8.655 0.969230769230769  C 9.873 1.86461538461538  10.692 3.29230769230769  10.785 4.92307692307692  L 11.985 4.92307692307692  C 11.895 2.95076923076923  10.947 1.21538461538462  9.51 0.0923076923076925  L 8.655 0.969230769230769  Z M 9.6 8.30769230769231  L 9.6 5.23076923076923  C 9.6 3.33846153846154  8.619 1.76  6.9 1.34153846153846  L 6.9 0.923076923076923  C 6.9 0.412307692307692  6.498 0  6 0  C 5.502 0  5.1 0.412307692307692  5.1 0.923076923076923  L 5.1 1.34153846153846  C 3.381 1.76  2.4 3.33846153846154  2.4 5.23076923076923  L 2.4 8.30769230769231  L 1.2 9.53846153846154  L 1.2 10.1538461538462  L 10.8 10.1538461538462  L 10.8 9.53846153846154  L 9.6 8.30769230769231  Z M 4.8 10.7692307692308  C 4.8 11.4492307692308  5.337 12  6 12  C 6.084 12  6.165 11.9907692307692  6.243 11.9753846153846  C 6.633 11.8923076923077  6.954 11.6153846153846  7.107 11.2492307692308  C 7.167 11.1015384615385  7.2 10.9415384615385  7.2 10.7692307692308  L 4.8 10.7692307692308  Z " fill-rule="nonzero" fill="#ffffff" stroke="none" transform="matrix(1 0 0 1 235 43 )" />
  </g>
</svg>