<?xml version="1.0" encoding="utf-8"?>
<svg version="1.1" xmlns:xlink="http://www.w3.org/1999/xlink" width="19px" height="14px" xmlns="http://www.w3.org/2000/svg">
  <g transform="matrix(1 0 0 1 -76 -5 )">
    <path d="M 19 7  C 19 6.3  19 5.83333333333333  18.43 5.83333333333333  L 15.2 5.83333333333333  L 15.2 1.86666666666667  C 15.2 1.16666666666667  14.82 1.16666666666667  14.25 1.16666666666667  C 13.68 1.16666666666667  13.3 1.16666666666667  13.3 1.86666666666667  L 13.3 5.83333333333333  L 10.07 5.83333333333333  C 9.5 5.83333333333333  9.5 6.3  9.5 7  C 9.5 7.7  9.5 8.16666666666667  10.07 8.16666666666667  L 13.3 8.16666666666667  L 13.3 12.1333333333333  C 13.3 12.8333333333333  13.68 12.8333333333333  14.25 12.8333333333333  C 14.82 12.8333333333333  15.2 12.8333333333333  15.2 12.1333333333333  L 15.2 8.16666666666667  L 18.43 8.16666666666667  C 19 8.16666666666667  19 7.7  19 7  Z M 7.6 7  C 7.6 6.3  7.6 5.83333333333333  7.03 5.83333333333333  L 0.57 5.83333333333333  C 0 5.83333333333333  0 6.3  0 7  C 0 7.7  0 8.16666666666667  0.57 8.16666666666667  L 7.03 8.16666666666667  C 7.6 8.16666666666667  7.6 7.7  7.6 7  Z M 7.6 12.8333333333333  C 7.6 12.1333333333333  7.6 11.6666666666667  7.03 11.6666666666667  L 0.57 11.6666666666667  C 0 11.6666666666667  0 12.1333333333333  0 12.8333333333333  C 0 13.5333333333333  0 14  0.57 14  L 7.03 14  C 7.6 14  7.6 13.5333333333333  7.6 12.8333333333333  Z M 7.6 1.16666666666667  C 7.6 0.466666666666667  7.6 0  7.03 0  L 0.57 0  C 0 0  0 0.466666666666667  0 1.16666666666667  C 0 1.86666666666667  0 2.33333333333333  0.57 2.33333333333333  L 7.03 2.33333333333333  C 7.6 2.33333333333333  7.6 1.86666666666667  7.6 1.16666666666667  Z " fill-rule="nonzero" fill="#333333" stroke="none" transform="matrix(1 0 0 1 76 5 )" />
  </g>
</svg>