<?xml version="1.0" encoding="utf-8"?>
<svg version="1.1" xmlns:xlink="http://www.w3.org/1999/xlink" width="15px" height="25px" xmlns="http://www.w3.org/2000/svg">
  <g transform="matrix(1 0 0 1 -175 -141 )">
    <path d="M 10.6702471136325 0.683121400374397  C 11.5923400004422 -0.198378854331364  13.251224811162 -0.25657080268603  14.2328787217608 0.683121400374397  C 15.2167385962037 1.62281360343481  15.2939473307451 2.93105481274141  14.2328787217608 4.07980697840932  L 5.96713219813437 12.5025526884096  L 14.2328787217608 20.9252983984099  C 15.2939473307451 22.0740505640778  15.2167385962037 23.3844470307308  14.2328787217608 24.3176734617519  C 13.251224811162 25.2573656648123  11.5923400004422 25.1970184591112  10.6702471136325 24.3176734617519  C 9.74815422682284 23.4426389790855  0.738997887754166 14.1987402200806  0.738997887754166 14.1987402200806  C 0.247067950532734 13.7310493758969  0 13.1168010321532  0 12.5025526884096  C 0 11.888304344666  0.247067950532734 11.2740560009223  0.738997887754166 10.8020546420457  C 0.738997887754166 10.8020546420457  9.74815422682284 1.56246639773369  10.6702471136325 0.683121400374397  Z " fill-rule="nonzero" fill="#333333" stroke="none" transform="matrix(1 0 0 1 175 141 )" />
  </g>
</svg>