<?xml version="1.0" encoding="utf-8"?>
<svg version="1.1" xmlns:xlink="http://www.w3.org/1999/xlink" width="16px" height="16px" xmlns="http://www.w3.org/2000/svg">
  <g transform="matrix(1 0 0 1 -23 -3 )">
    <path d="M 16 7.99916666666667  C 16 3.58166666666667  12.4175 0  8 0  C 3.58166666666667 0  0 3.58166666666667  0 8  C 0 12.4183333333333  3.58166666666667 16  8 16  C 12.4175 16  16 12.4183333333333  16 7.99916666666667  Z M 14.3341666666667 8  C 14.3341666666667 11.4983333333333  11.4975 14.3325  8 14.3325  C 4.5025 14.3325  1.66666666666667 11.4975  1.66666666666667 7.99916666666667  C 1.66666666666667 4.50083333333334  4.50166666666667 1.66666666666667  8 1.66666666666667  C 11.4975 1.66666666666667  14.3341666666667 4.50166666666667  14.3341666666667 8  Z M 4.66666666666667 6.33333333333334  C 4.66666666666667 7.13916666666666  5.22666666666666 7.79166666666666  5.9175 7.79166666666666  C 6.6075 7.79166666666666  7.16666666666667 7.13916666666666  7.16666666666667 6.33333333333334  C 7.16666666666667 5.52750000000001  6.60666666666667 4.875  5.91666666666667 4.875  C 5.22666666666666 4.875  4.66666666666667 5.52750000000001  4.66666666666667 6.33333333333334  Z M 8.83333333333333 6.33333333333334  C 8.83333333333333 7.13833333333333  9.39333333333333 7.79166666666666  10.0833333333333 7.79166666666666  C 10.7741666666667 7.79166666666666  11.3333333333333 7.13916666666666  11.3333333333333 6.33333333333334  C 11.3333333333333 5.52750000000001  10.7733333333333 4.875  10.0833333333333 4.875  C 9.39333333333333 4.875  8.83333333333333 5.52833333333334  8.83333333333333 6.33333333333334  Z M 11.8925 9.945  C 12.0458333333333 9.63916666666666  11.9225 9.27  11.6175 9.11333333333333  C 11.315 8.95833333333333  10.9383333333333 9.0775  10.7775 9.38  C 10.7491666666667 9.435  10.0533333333333 10.7075  8.00083333333333 10.7075  C 5.95833333333333 10.7075  5.25833333333333 9.44666666666667  5.22333333333334 9.38083333333333  C 5.06666666666667 9.07666666666667  4.69666666666667 8.9525  4.38666666666667 9.10666666666666  C 4.07833333333333 9.26166666666667  3.95333333333334 9.63666666666667  4.1075 9.94583333333333  C 4.14916666666667 10.0283333333333  5.1475 11.9575  8.00083333333333 11.9575  C 10.855 11.9575  11.8516666666667 10.0275  11.8925 9.945  Z " fill-rule="nonzero" fill="#333333" stroke="none" transform="matrix(1 0 0 1 23 3 )" />
  </g>
</svg>