<?xml version="1.0" encoding="utf-8"?>
<svg version="1.1" xmlns:xlink="http://www.w3.org/1999/xlink" width="16px" height="16px" viewBox="351 2045.5  16 16" xmlns="http://www.w3.org/2000/svg">
  <path d="M 359 2045.5  C 363.48 2045.5  367 2049.02  367 2053.5  C 367 2057.98  363.48 2061.5  359 2061.5  C 354.52 2061.5  351 2057.98  351 2053.5  C 351 2049.02  354.52 2045.5  359 2045.5  Z " fill-rule="nonzero" fill="#f0f0f0" stroke="none" />
  <path d="M 359 2046  C 363.2 2046  366.5 2049.3  366.5 2053.5  C 366.5 2057.7  363.2 2061  359 2061  C 354.8 2061  351.5 2057.7  351.5 2053.5  C 351.5 2049.3  354.8 2046  359 2046  Z " stroke-width="1" stroke="#797979" fill="none" />
  <path d="M 359 2057.5  C 356.76 2057.5  355 2055.74  355 2053.5  C 355 2051.26  356.76 2049.5  359 2049.5  C 361.24 2049.5  363 2051.26  363 2053.5  C 363 2055.74  361.24 2057.5  359 2057.5  " fill-rule="nonzero" fill="#797979" stroke="none" />
</svg>