<?xml version="1.0" encoding="utf-8"?>
<svg version="1.1" xmlns:xlink="http://www.w3.org/1999/xlink" width="19px" height="12px" xmlns="http://www.w3.org/2000/svg">
  <g transform="matrix(1 0 0 1 -1122 -1951 )">
    <path d="M 19 9.33913043478261  C 19 9.54396135265701  18.9253515301902 9.71980676328502  18.7760545905707 9.86666666666667  L 16.8194789081886 11.7797101449275  C 16.6701819685691 11.9265700483092  16.4933829611249 12  16.2890818858561 12  C 16.0847808105873 12  15.9079818031431 11.9265700483092  15.7586848635236 11.7797101449275  L 9.5 5.6231884057971  L 3.24131513647643 11.7797101449275  C 3.09201819685691 11.9265700483092  2.91521918941274 12  2.71091811414392 12  C 2.5066170388751 12  2.32981803143093 11.9265700483092  2.18052109181141 11.7797101449275  L 0.22394540942928 9.86666666666667  C 0.0746484698097602 9.71980676328502  0 9.54396135265701  0 9.33913043478261  C 0 9.13429951690821  0.0746484698097602 8.95845410628019  0.22394540942928 8.81159420289855  L 8.96960297766749 0.220289855072464  C 9.11889991728702 0.0734299516908208  9.29569892473118 0  9.5 0  C 9.70430107526882 0  9.88110008271299 0.0734299516908208  10.0303970223325 0.220289855072464  L 18.7760545905707 8.81159420289855  C 18.9253515301902 8.95845410628019  19 9.13429951690821  19 9.33913043478261  Z " fill-rule="nonzero" fill="#7f7f7f" stroke="none" transform="matrix(1 0 0 1 1122 1951 )" />
  </g>
</svg>