<?xml version="1.0" encoding="utf-8"?>
<svg version="1.1" xmlns:xlink="http://www.w3.org/1999/xlink" width="16px" height="16px" viewBox="351 2011.5  16 16" xmlns="http://www.w3.org/2000/svg">
  <path d="M 359 2011.5  C 363.48 2011.5  367 2015.02  367 2019.5  C 367 2023.98  363.48 2027.5  359 2027.5  C 354.52 2027.5  351 2023.98  351 2019.5  C 351 2015.02  354.52 2011.5  359 2011.5  Z " fill-rule="nonzero" fill="#ffffff" stroke="none" />
  <path d="M 359 2012  C 363.2 2012  366.5 2015.3  366.5 2019.5  C 366.5 2023.7  363.2 2027  359 2027  C 354.8 2027  351.5 2023.7  351.5 2019.5  C 351.5 2015.3  354.8 2012  359 2012  Z " stroke-width="1" stroke="#797979" fill="none" />
  <path d="M 359 2023.5  C 356.76 2023.5  355 2021.74  355 2019.5  C 355 2017.26  356.76 2015.5  359 2015.5  C 361.24 2015.5  363 2017.26  363 2019.5  C 363 2021.74  361.24 2023.5  359 2023.5  " fill-rule="nonzero" fill="#797979" stroke="none" />
</svg>