<?xml version="1.0" encoding="utf-8"?>
<svg version="1.1" xmlns:xlink="http://www.w3.org/1999/xlink" width="32px" height="28px" xmlns="http://www.w3.org/2000/svg">
  <g transform="matrix(1 0 0 1 -297 -88 )">
    <path d="M 31.7894736842105 27.571044921875  C 28.6809210526316 24.828125  26.3371710526316 23.777099609375  26.3371710526316 14.052978515625  C 26.3371710526316 5.713134765625  22.0197368421053 2.876220703125  17.9819078947368 2.243896484375  C 17.9819078947368 2.201171875  17.9901315789474 2.158447265625  17.9901315789474 2.107177734375  C 17.9901315789474 1.05615234375  17.09375 0.218750000000002  16 0.218750000000002  C 14.90625 0.218750000000002  14.0427631578947 1.05615234375  14.0427631578947 2.107177734375  C 14.0427631578947 2.158447265625  14.0427631578947 2.201171875  14.0509868421053 2.243896484375  C 10.0049342105263 2.884765625  5.66282894736842 5.730224609375  5.66282894736842 14.070068359375  C 5.66282894736842 23.794189453125  3.33552631578948 24.836669921875  0.210526315789477 27.571044921875  L 31.7894736842105 27.571044921875  Z " fill-rule="nonzero" fill="#ffffff" stroke="none" transform="matrix(1 0 0 1 297 88 )" />
  </g>
</svg>