<?xml version="1.0" encoding="utf-8"?>
<svg version="1.1" xmlns:xlink="http://www.w3.org/1999/xlink" width="20px" height="20px" xmlns="http://www.w3.org/2000/svg">
  <g transform="matrix(1 0 0 1 -53 -123 )">
    <path d="M 2.025 8.2051282051282  C 2.18 5.48717948717949  3.545 3.10769230769231  5.58 1.62051282051282  L 4.15 0.153846153846154  C 1.755 2.02564102564103  0.175 4.91794871794872  0.0249999999999999 8.2051282051282  L 2.025 8.2051282051282  Z M 14.425 1.61538461538462  C 16.455 3.10769230769231  17.82 5.48717948717949  17.975 8.2051282051282  L 19.975 8.2051282051282  C 19.825 4.91794871794872  18.245 2.02564102564103  15.85 0.153846153846154  L 14.425 1.61538461538462  Z M 16 13.8461538461538  L 16 8.71794871794872  C 16 5.56410256410256  14.365 2.93333333333333  11.5 2.23589743589744  L 11.5 1.53846153846154  C 11.5 0.687179487179487  10.83 0  10 0  C 9.17 0  8.5 0.687179487179487  8.5 1.53846153846154  L 8.5 2.23589743589744  C 5.635 2.93333333333333  4 5.56410256410256  4 8.71794871794872  L 4 13.8461538461538  L 2 15.8974358974359  L 2 17  L 18 17  L 18 15.8974358974359  L 16 13.8461538461538  Z M 8 17.9487179487179  C 8 19.0820512820513  8.895 20  10 20  C 10.14 20  10.275 19.9846153846154  10.405 19.9589743589744  C 11.055 19.8205128205128  11.59 19.3589743589744  11.845 18.748717948718  C 11.945 18.5025641025641  12 18.2358974358974  12 17.9487179487179  L 8 17.9487179487179  Z " fill-rule="nonzero" fill="#ffffff" stroke="none" transform="matrix(1 0 0 1 53 123 )" />
  </g>
</svg>