<?xml version="1.0" encoding="utf-8"?>
<svg version="1.1" xmlns:xlink="http://www.w3.org/1999/xlink" width="16px" height="16px" viewBox="347 1417  16 16" xmlns="http://www.w3.org/2000/svg">
  <path d="M 355 1417  C 359.48 1417  363 1420.52  363 1425  C 363 1429.48  359.48 1433  355 1433  C 350.52 1433  347 1429.48  347 1425  C 347 1420.52  350.52 1417  355 1417  Z " fill-rule="nonzero" fill="#f0f0f0" stroke="none" />
  <path d="M 355 1417.5  C 359.2 1417.5  362.5 1420.8  362.5 1425  C 362.5 1429.2  359.2 1432.5  355 1432.5  C 350.8 1432.5  347.5 1429.2  347.5 1425  C 347.5 1420.8  350.8 1417.5  355 1417.5  Z " stroke-width="1" stroke="#797979" fill="none" />
  <path d="M 355 1429  C 352.76 1429  351 1427.24  351 1425  C 351 1422.76  352.76 1421  355 1421  C 357.24 1421  359 1422.76  359 1425  C 359 1427.24  357.24 1429  355 1429  " fill-rule="nonzero" fill="#797979" stroke="none" />
</svg>