<?xml version="1.0" encoding="utf-8"?>
<svg version="1.1" xmlns:xlink="http://www.w3.org/1999/xlink" width="16px" height="16px" viewBox="351 1983.5  16 16" xmlns="http://www.w3.org/2000/svg">
  <path d="M 359 1983.5  C 363.48 1983.5  367 1987.02  367 1991.5  C 367 1995.98  363.48 1999.5  359 1999.5  C 354.52 1999.5  351 1995.98  351 1991.5  C 351 1987.02  354.52 1983.5  359 1983.5  Z " fill-rule="nonzero" fill="#f0f0f0" stroke="none" />
  <path d="M 359 1984  C 363.2 1984  366.5 1987.3  366.5 1991.5  C 366.5 1995.7  363.2 1999  359 1999  C 354.8 1999  351.5 1995.7  351.5 1991.5  C 351.5 1987.3  354.8 1984  359 1984  Z " stroke-width="1" stroke="#797979" fill="none" />
  <path d="M 359 1995.5  C 356.76 1995.5  355 1993.74  355 1991.5  C 355 1989.26  356.76 1987.5  359 1987.5  C 361.24 1987.5  363 1989.26  363 1991.5  C 363 1993.74  361.24 1995.5  359 1995.5  " fill-rule="nonzero" fill="#797979" stroke="none" />
</svg>