<?xml version="1.0" encoding="utf-8"?>
<svg version="1.1" xmlns:xlink="http://www.w3.org/1999/xlink" width="16px" height="16px" viewBox="351 1949.5  16 16" xmlns="http://www.w3.org/2000/svg">
  <path d="M 359 1949.5  C 363.48 1949.5  367 1953.02  367 1957.5  C 367 1961.98  363.48 1965.5  359 1965.5  C 354.52 1965.5  351 1961.98  351 1957.5  C 351 1953.02  354.52 1949.5  359 1949.5  Z " fill-rule="nonzero" fill="#ffffff" stroke="none" />
  <path d="M 359 1950  C 363.2 1950  366.5 1953.3  366.5 1957.5  C 366.5 1961.7  363.2 1965  359 1965  C 354.8 1965  351.5 1961.7  351.5 1957.5  C 351.5 1953.3  354.8 1950  359 1950  Z " stroke-width="1" stroke="#797979" fill="none" />
  <path d="M 359 1961.5  C 356.76 1961.5  355 1959.74  355 1957.5  C 355 1955.26  356.76 1953.5  359 1953.5  C 361.24 1953.5  363 1955.26  363 1957.5  C 363 1959.74  361.24 1961.5  359 1961.5  " fill-rule="nonzero" fill="#797979" stroke="none" />
</svg>