<?xml version="1.0" encoding="utf-8"?>
<svg version="1.1" xmlns:xlink="http://www.w3.org/1999/xlink" width="19px" height="8px" xmlns="http://www.w3.org/2000/svg">
  <g transform="matrix(1 0 0 1 -233 -1239 )">
    <path d="M 13.604 0.571076923076921  C 16.036 1.57538461538461  18.62 2.87507692307692  18.62 5.03138461538462  L 18.62 5.85846153846154  C 18.62 6.83323076923077  17.7992 7.63076923076923  16.796 7.63076923076923  L 2.204 7.63076923076923  C 1.2008 7.63076923076923  0.38 6.83323076923077  0.38 5.85846153846154  L 0.38 5.03138461538462  C 0.38 2.87507692307692  2.964 1.57538461538461  5.396 0.541538461538461  C 5.4872 0.511999999999998  5.548 0.482461538461538  5.6392 0.423384615384615  C 5.8216 0.334769230769231  6.0344 0.334769230769231  6.2168 0.452923076923077  C 7.1896 1.07323076923077  8.3144 1.42769230769231  9.5 1.42769230769231  C 10.6856 1.42769230769231  11.8104 1.07323076923077  12.7832 0.482461538461538  C 12.9656 0.364307692307692  13.1784 0.364307692307692  13.3608 0.452923076923075  C 13.452 0.482461538461538  13.5128 0.511999999999998  13.604 0.571076923076921  Z " fill-rule="nonzero" fill="#ffffff" stroke="none" transform="matrix(1 0 0 1 233 1239 )" />
  </g>
</svg>