<?xml version="1.0" encoding="utf-8"?>
<svg version="1.1" xmlns:xlink="http://www.w3.org/1999/xlink" width="11px" height="11px" xmlns="http://www.w3.org/2000/svg">
  <g transform="matrix(1 0 0 1 -10 -9 )">
    <path d="M 1.11375 4.51282051282051  C 1.199 3.01794871794872  1.94975 1.70923076923077  3.069 0.891282051282051  L 2.2825 0.0846153846153846  C 0.96525 1.11410256410256  0.0962499999999999 2.70487179487179  0.0137499999999999 4.51282051282051  L 1.11375 4.51282051282051  Z M 7.93375 0.888461538461539  C 9.05025 1.70923076923077  9.801 3.01794871794872  9.88625 4.51282051282051  L 10.98625 4.51282051282051  C 10.90375 2.70487179487179  10.03475 1.11410256410256  8.7175 0.0846153846153848  L 7.93375 0.888461538461539  Z M 8.8 7.61538461538462  L 8.8 4.79487179487179  C 8.8 3.06025641025641  7.90075 1.61333333333333  6.325 1.22974358974359  L 6.325 0.846153846153846  C 6.325 0.377948717948718  5.9565 0  5.5 0  C 5.0435 0  4.675 0.377948717948718  4.675 0.846153846153846  L 4.675 1.22974358974359  C 3.09925 1.61333333333333  2.2 3.06025641025641  2.2 4.79487179487179  L 2.2 7.61538461538462  L 1.1 8.74358974358974  L 1.1 9.30769230769231  L 9.9 9.30769230769231  L 9.9 8.74358974358974  L 8.8 7.61538461538462  Z M 4.4 9.87179487179487  C 4.4 10.4951282051282  4.89225 11  5.5 11  C 5.577 11  5.65125 10.9915384615385  5.72275 10.9774358974359  C 6.08025 10.9012820512821  6.3745 10.6474358974359  6.51475 10.3117948717949  C 6.56975 10.1764102564103  6.6 10.0297435897436  6.6 9.87179487179487  L 4.4 9.87179487179487  Z " fill-rule="nonzero" fill="#ffffff" stroke="none" transform="matrix(1 0 0 1 10 9 )" />
  </g>
</svg>