<?xml version="1.0" encoding="utf-8"?>
<svg version="1.1" xmlns:xlink="http://www.w3.org/1999/xlink" width="16px" height="16px" viewBox="347 1385  16 16" xmlns="http://www.w3.org/2000/svg">
  <path d="M 355 1385  C 359.48 1385  363 1388.52  363 1393  C 363 1397.48  359.48 1401  355 1401  C 350.52 1401  347 1397.48  347 1393  C 347 1388.52  350.52 1385  355 1385  Z " fill-rule="nonzero" fill="#f0f0f0" stroke="none" />
  <path d="M 355 1385.5  C 359.2 1385.5  362.5 1388.8  362.5 1393  C 362.5 1397.2  359.2 1400.5  355 1400.5  C 350.8 1400.5  347.5 1397.2  347.5 1393  C 347.5 1388.8  350.8 1385.5  355 1385.5  Z " stroke-width="1" stroke="#797979" fill="none" />
  <path d="M 355 1397  C 352.76 1397  351 1395.24  351 1393  C 351 1390.76  352.76 1389  355 1389  C 357.24 1389  359 1390.76  359 1393  C 359 1395.24  357.24 1397  355 1397  " fill-rule="nonzero" fill="#797979" stroke="none" />
</svg>