<?xml version="1.0" encoding="utf-8"?>
<svg version="1.1" xmlns:xlink="http://www.w3.org/1999/xlink" width="16px" height="16px" viewBox="347 1381  16 16" xmlns="http://www.w3.org/2000/svg">
  <path d="M 355 1381  C 359.48 1381  363 1384.52  363 1389  C 363 1393.48  359.48 1397  355 1397  C 350.52 1397  347 1393.48  347 1389  C 347 1384.52  350.52 1381  355 1381  Z " fill-rule="nonzero" fill="#ffffff" stroke="none" />
  <path d="M 355 1381.5  C 359.2 1381.5  362.5 1384.8  362.5 1389  C 362.5 1393.2  359.2 1396.5  355 1396.5  C 350.8 1396.5  347.5 1393.2  347.5 1389  C 347.5 1384.8  350.8 1381.5  355 1381.5  Z " stroke-width="1" stroke="#797979" fill="none" />
  <path d="M 355 1393  C 352.76 1393  351 1391.24  351 1389  C 351 1386.76  352.76 1385  355 1385  C 357.24 1385  359 1386.76  359 1389  C 359 1391.24  357.24 1393  355 1393  " fill-rule="nonzero" fill="#797979" stroke="none" />
</svg>