<?xml version="1.0" encoding="utf-8"?>
<svg version="1.1" xmlns:xlink="http://www.w3.org/1999/xlink" width="16px" height="16px" viewBox="347 1349  16 16" xmlns="http://www.w3.org/2000/svg">
  <path d="M 355 1349  C 359.48 1349  363 1352.52  363 1357  C 363 1361.48  359.48 1365  355 1365  C 350.52 1365  347 1361.48  347 1357  C 347 1352.52  350.52 1349  355 1349  Z " fill-rule="nonzero" fill="#ffffff" stroke="none" />
  <path d="M 355 1349.5  C 359.2 1349.5  362.5 1352.8  362.5 1357  C 362.5 1361.2  359.2 1364.5  355 1364.5  C 350.8 1364.5  347.5 1361.2  347.5 1357  C 347.5 1352.8  350.8 1349.5  355 1349.5  Z " stroke-width="1" stroke="#797979" fill="none" />
  <path d="M 355 1361  C 352.76 1361  351 1359.24  351 1357  C 351 1354.76  352.76 1353  355 1353  C 357.24 1353  359 1354.76  359 1357  C 359 1359.24  357.24 1361  355 1361  " fill-rule="nonzero" fill="#797979" stroke="none" />
</svg>