<?xml version="1.0" encoding="utf-8"?>
<svg version="1.1" xmlns:xlink="http://www.w3.org/1999/xlink" width="16px" height="16px" viewBox="351 2153.5  16 16" xmlns="http://www.w3.org/2000/svg">
  <path d="M 359 2153.5  C 363.48 2153.5  367 2157.02  367 2161.5  C 367 2165.98  363.48 2169.5  359 2169.5  C 354.52 2169.5  351 2165.98  351 2161.5  C 351 2157.02  354.52 2153.5  359 2153.5  Z " fill-rule="nonzero" fill="#ffffff" stroke="none" />
  <path d="M 359 2154  C 363.2 2154  366.5 2157.3  366.5 2161.5  C 366.5 2165.7  363.2 2169  359 2169  C 354.8 2169  351.5 2165.7  351.5 2161.5  C 351.5 2157.3  354.8 2154  359 2154  Z " stroke-width="1" stroke="#797979" fill="none" />
  <path d="M 359 2165.5  C 356.76 2165.5  355 2163.74  355 2161.5  C 355 2159.26  356.76 2157.5  359 2157.5  C 361.24 2157.5  363 2159.26  363 2161.5  C 363 2163.74  361.24 2165.5  359 2165.5  " fill-rule="nonzero" fill="#797979" stroke="none" />
</svg>