<?xml version="1.0" encoding="utf-8"?>
<svg version="1.1" xmlns:xlink="http://www.w3.org/1999/xlink" width="16px" height="16px" viewBox="351 2119.5  16 16" xmlns="http://www.w3.org/2000/svg">
  <path d="M 359 2119.5  C 363.48 2119.5  367 2123.02  367 2127.5  C 367 2131.98  363.48 2135.5  359 2135.5  C 354.52 2135.5  351 2131.98  351 2127.5  C 351 2123.02  354.52 2119.5  359 2119.5  Z " fill-rule="nonzero" fill="#ffffff" stroke="none" />
  <path d="M 359 2120  C 363.2 2120  366.5 2123.3  366.5 2127.5  C 366.5 2131.7  363.2 2135  359 2135  C 354.8 2135  351.5 2131.7  351.5 2127.5  C 351.5 2123.3  354.8 2120  359 2120  Z " stroke-width="1" stroke="#797979" fill="none" />
  <path d="M 359 2131.5  C 356.76 2131.5  355 2129.74  355 2127.5  C 355 2125.26  356.76 2123.5  359 2123.5  C 361.24 2123.5  363 2125.26  363 2127.5  C 363 2129.74  361.24 2131.5  359 2131.5  " fill-rule="nonzero" fill="#797979" stroke="none" />
</svg>