<?xml version="1.0" encoding="utf-8"?>
<svg version="1.1" xmlns:xlink="http://www.w3.org/1999/xlink" width="16px" height="4px" xmlns="http://www.w3.org/2000/svg">
  <g transform="matrix(1 0 0 1 -491 -1218 )">
    <path d="M 0 2  C 0 0.9  0.9 0  2 0  C 3.1 0  4 0.9  4 2  C 4 3.1  3.1 4  2 4  C 0.9 4  0 3.1  0 2  Z M 6 2  C 6 0.9  6.9 0  8 0  C 9.1 0  10 0.9  10 2  C 10 3.1  9.1 4  8 4  C 6.9 4  6 3.1  6 2  Z M 12 2  C 12 0.9  12.9 0  14 0  C 15.1 0  16 0.9  16 2  C 16 3.1  15.1 4  14 4  C 12.9 4  12 3.1  12 2  Z " fill-rule="nonzero" fill="#7f7f7f" stroke="none" transform="matrix(1 0 0 1 491 1218 )" />
  </g>
</svg>