<?xml version="1.0" encoding="utf-8"?>
<svg version="1.1" xmlns:xlink="http://www.w3.org/1999/xlink" width="16px" height="16px" viewBox="216 438  16 16" xmlns="http://www.w3.org/2000/svg">
  <path d="M 224 438  C 228.48 438  232 441.52  232 446  C 232 450.48  228.48 454  224 454  C 219.52 454  216 450.48  216 446  C 216 441.52  219.52 438  224 438  Z " fill-rule="nonzero" fill="#ffffff" stroke="none" />
  <path d="M 224 438.5  C 228.2 438.5  231.5 441.8  231.5 446  C 231.5 450.2  228.2 453.5  224 453.5  C 219.8 453.5  216.5 450.2  216.5 446  C 216.5 441.8  219.8 438.5  224 438.5  Z " stroke-width="1" stroke="#797979" fill="none" />
  <path d="M 224 450  C 221.76 450  220 448.24  220 446  C 220 443.76  221.76 442  224 442  C 226.24 442  228 443.76  228 446  C 228 448.24  226.24 450  224 450  " fill-rule="nonzero" fill="#797979" stroke="none" />
</svg>