<?xml version="1.0" encoding="utf-8"?>
<svg version="1.1" xmlns:xlink="http://www.w3.org/1999/xlink" width="14px" height="13px" xmlns="http://www.w3.org/2000/svg">
  <g transform="matrix(1 0 0 1 -832 -148 )">
    <path d="M 9.72222222222222 8.90740740740741  C 9.72222222222222 8.8541910331384  9.74166666666667 8.80350877192982  9.778125 8.76549707602339  L 10.5559027777778 7.95458089668616  C 10.6774305555556 7.82787524366472  10.8888888888889 7.91656920077973  10.8888888888889 8.0990253411306  L 10.8888888888889 11.7836257309942  C 10.8888888888889 12.4551656920078  10.3663194444444 13  9.72222222222222 13  L 1.16666666666667 13  C 0.522569444444444 13  0 12.4551656920078  0 11.7836257309942  L 0 2.8635477582846  C 0 2.19200779727095  0.522569444444444 1.64717348927875  1.16666666666667 1.64717348927875  L 7.81423611111111 1.64717348927875  C 7.98680555555556 1.64717348927875  8.07430555555556 1.86510721247563  7.95277777777778 1.9943469785575  L 7.175 2.80526315789474  C 7.13854166666667 2.84327485380117  7.08993055555556 2.8635477582846  7.03645833333333 2.8635477582846  L 1.16666666666667 2.8635477582846  L 1.16666666666667 11.7836257309942  L 9.72222222222222 11.7836257309942  L 9.72222222222222 8.90740740740741  Z M 13.5819444444444 1.55341130604289  C 14.1385416666667 2.13372319688109  14.1385416666667 3.0738791423002  13.584375 3.65165692007797  L 7.20173611111111 10.3062378167641  L 5.00451388888889 10.559649122807  C 4.36770833333333 10.6331384015595  3.82569444444444 10.0730994152047  3.89618055555556 9.40409356725146  L 4.13923611111111 7.11325536062378  L 10.521875 0.458674463937622  C 11.0784722222222 -0.121637426900585  11.9777777777778 -0.121637426900585  12.5319444444444 0.458674463937622  L 13.5819444444444 1.55341130604289  Z M 6.66458333333333 9.14307992202729  L 11.1829861111111 4.43469785575049  L 9.77083333333333 2.96237816764133  L 5.25486111111111 7.67329434697856  L 5.07743055555556 9.3280701754386  L 6.66458333333333 9.14307992202729  Z M 12.7604166666667 2.79259259259259  C 12.8576388888889 2.68615984405458  12.8576388888889 2.51890838206628  12.7579861111111 2.41500974658869  L 11.7079861111111 1.32027290448343  C 11.6083333333333 1.21637426900585  11.4454861111111 1.21637426900585  11.3482638888889 1.32027290448343  L 10.5972222222222 2.10331384015595  L 12.009375 3.57563352826511  L 12.7604166666667 2.79259259259259  Z " fill-rule="nonzero" fill="#7f7f7f" stroke="none" transform="matrix(1 0 0 1 832 148 )" />
  </g>
</svg>