<?xml version="1.0" encoding="utf-8"?>
<svg version="1.1" xmlns:xlink="http://www.w3.org/1999/xlink" width="12px" height="8px" xmlns="http://www.w3.org/2000/svg">
  <g transform="matrix(1 0 0 1 -109 -332 )">
    <path d="M 11.6721017278203 5.690798460604  C 12.0952218500791 6.18258133356916  12.1231539852893 7.06731989928639  11.6721017278203 7.59086865160575  C 11.2210494703513 8.11559391797528  10.5930936898841 8.15677190973074  10.0416926503635 7.59086865160575  L 5.9987747095634 3.18247050567166  L 1.95585676876326 7.59086865160575  C 1.40445572924266 8.15677190973074  0.775465425249196 8.11559391797528  0.327516738359106 7.59086865160575  C -0.123535519109897 7.06731989928639  -0.0945688603733523 6.18258133356916  0.327516738359106 5.690798460604  C 0.747533290038954 5.19901558763884  5.18460469436132 0.394132206802222  5.18460469436132 0.394132206802222  C 5.40909629956951 0.131769573617459  5.70393550456645 0  5.9987747095634 0  C 6.29361391456033 0  6.58845311955727 0.131769573617459  6.81501377181808 0.394132206802222  C 6.81501377181808 0.394132206802222  11.2500161290878 5.19901558763884  11.6721017278203 5.690798460604  Z " fill-rule="nonzero" fill="#970000" stroke="none" transform="matrix(1 0 0 1 109 332 )" />
  </g>
</svg>