<?xml version="1.0" encoding="utf-8"?>
<svg version="1.1" xmlns:xlink="http://www.w3.org/1999/xlink" width="8px" height="8px" xmlns="http://www.w3.org/2000/svg">
  <g transform="matrix(1 0 0 1 -123 -332 )">
    <path d="M 7.78140115188019 5.690798460604  C 8.06348123338604 6.18258133356916  8.08210265685953 7.06731989928639  7.78140115188019 7.59086865160575  C 7.48069964690086 8.11559391797528  7.06206245992275 8.15677190973074  6.69446176690902 7.59086865160575  L 3.99918313970893 3.18247050567166  L 1.30390451250884 7.59086865160575  C 0.936303819495109 8.15677190973074  0.516976950166131 8.11559391797528  0.218344492239404 7.59086865160575  C -0.0823570127399312 7.06731989928639  -0.0630459069155682 6.18258133356916  0.218344492239404 5.690798460604  C 0.498355526692636 5.19901558763884  3.45640312957421 0.394132206802222  3.45640312957421 0.394132206802222  C 3.60606419971301 0.131769573617459  3.80262366971097 0  3.99918313970893 0  C 4.19574260970689 0  4.39230207970485 0.131769573617459  4.54334251454539 0.394132206802222  C 4.54334251454539 0.394132206802222  7.50001075272522 5.19901558763884  7.78140115188019 5.690798460604  Z " fill-rule="nonzero" fill="#970000" stroke="none" transform="matrix(1 0 0 1 123 332 )" />
  </g>
</svg>