<?xml version="1.0" encoding="utf-8"?>
<svg version="1.1" xmlns:xlink="http://www.w3.org/1999/xlink" width="8px" height="8px" xmlns="http://www.w3.org/2000/svg">
  <g transform="matrix(1 0 0 1 -67 -332 )">
    <path d="M 0.218598848119807 2.30920153939599  C -0.0634812333860365 1.81741866643083  -0.0821026568595297 0.932680100713609  0.218598848119807 0.409131348394244  C 0.51930035309914 -0.115593917975284  0.937937540077251 -0.156771909730735  1.30553823309098 0.409131348394244  L 4.00081686029107 4.81752949432834  L 6.69609548749116 0.409131348394244  C 7.06369618050489 -0.156771909730735  7.48302304983387 -0.115593917975284  7.7816555077606 0.409131348394244  C 8.08235701273993 0.932680100713609  8.06304590691557 1.81741866643084  7.7816555077606 2.30920153939599  C 7.50164447330736 2.80098441236115  4.54359687042579 7.60586779319778  4.54359687042579 7.60586779319778  C 4.39393580028699 7.86823042638254  4.19737633028903 8  4.00081686029107 8  C 3.80425739029311 8  3.60769792029515 7.86823042638254  3.45665748545461 7.60586779319778  C 3.45665748545461 7.60586779319778  0.499989247274779 2.80098441236115  0.218598848119807 2.30920153939599  Z " fill-rule="nonzero" fill="#0000bf" stroke="none" transform="matrix(1 0 0 1 67 332 )" />
  </g>
</svg>