<?xml version="1.0" encoding="utf-8"?>
<svg version="1.1" xmlns:xlink="http://www.w3.org/1999/xlink" width="10px" height="8px" xmlns="http://www.w3.org/2000/svg">
  <g transform="matrix(1 0 0 1 -76 -385 )">
    <path d="M 0.273248560149759 2.30920153939599  C -0.0793515417325457 1.81741866643083  -0.102628321074412 0.932680100713609  0.273248560149759 0.409131348394244  C 0.649125441373925 -0.115593917975284  1.17242192509656 -0.156771909730735  1.63192279136373 0.409131348394244  L 5.00102107536384 4.81752949432834  L 8.37011935936396 0.409131348394244  C 8.82962022563111 -0.156771909730735  9.35377881229234 -0.115593917975284  9.72706938470074 0.409131348394244  C 10.1029462659249 0.932680100713609  10.0788073836445 1.81741866643084  9.72706938470074 2.30920153939599  C 9.37705559163421 2.80098441236115  5.67949608803223 7.60586779319778  5.67949608803223 7.60586779319778  C 5.49241975035874 7.86823042638254  5.24672041286129 8  5.00102107536384 8  C 4.75532173786639 8  4.50962240036894 7.86823042638254  4.32082185681827 7.60586779319778  C 4.32082185681827 7.60586779319778  0.624986559093474 2.80098441236115  0.273248560149759 2.30920153939599  Z " fill-rule="nonzero" fill="#d9001b" stroke="none" transform="matrix(1 0 0 1 76 385 )" />
  </g>
</svg>