<?xml version="1.0" encoding="utf-8"?>
<svg version="1.1" xmlns:xlink="http://www.w3.org/1999/xlink" width="12px" height="8px" xmlns="http://www.w3.org/2000/svg">
  <g transform="matrix(1 0 0 1 -59 -332 )">
    <path d="M 0.32789827217971 2.30920153939599  C -0.0952218500790548 1.81741866643083  -0.123153985289294 0.932680100713609  0.32789827217971 0.409131348394244  C 0.77895052964871 -0.115593917975284  1.40690631011588 -0.156771909730735  1.95830734963647 0.409131348394244  L 6.00122529043661 4.81752949432834  L 10.0441432312367 0.409131348394244  C 10.5955442707573 -0.156771909730735  11.2245345747508 -0.115593917975284  11.6724832616409 0.409131348394244  C 12.1235355191099 0.932680100713609  12.0945688603734 1.81741866643084  11.6724832616409 2.30920153939599  C 11.252466709961 2.80098441236115  6.81539530563868 7.60586779319778  6.81539530563868 7.60586779319778  C 6.59090370043049 7.86823042638254  6.29606449543355 8  6.00122529043661 8  C 5.70638608543967 8  5.41154688044273 7.86823042638254  5.18498622818192 7.60586779319778  C 5.18498622818192 7.60586779319778  0.749983870912168 2.80098441236115  0.32789827217971 2.30920153939599  Z " fill-rule="nonzero" fill="#0000bf" stroke="none" transform="matrix(1 0 0 1 59 332 )" />
  </g>
</svg>