<?xml version="1.0" encoding="utf-8"?>
<svg version="1.1" xmlns:xlink="http://www.w3.org/1999/xlink" width="10px" height="8px" xmlns="http://www.w3.org/2000/svg">
  <g transform="matrix(1 0 0 1 -212 -330 )">
    <path d="M 9.72675143985024 5.690798460604  C 10.0793515417325 6.18258133356916  10.1026283210744 7.06731989928639  9.72675143985024 7.59086865160575  C 9.35087455862607 8.11559391797528  8.82757807490344 8.15677190973074  8.36807720863628 7.59086865160575  L 4.99897892463616 3.18247050567166  L 1.62988064063605 7.59086865160575  C 1.17037977436889 8.15677190973074  0.646221187707664 8.11559391797528  0.272930615299255 7.59086865160575  C -0.102946265924914 7.06731989928639  -0.0788073836444602 6.18258133356916  0.272930615299255 5.690798460604  C 0.622944408365795 5.19901558763884  4.32050391196777 0.394132206802222  4.32050391196777 0.394132206802222  C 4.50758024964126 0.131769573617459  4.75327958713871 0  4.99897892463616 0  C 5.24467826213361 0  5.49037759963106 0.131769573617459  5.67917814318173 0.394132206802222  C 5.67917814318173 0.394132206802222  9.37501344090652 5.19901558763884  9.72675143985024 5.690798460604  Z " fill-rule="nonzero" fill="#0000bf" stroke="none" transform="matrix(1 0 0 1 212 330 )" />
  </g>
</svg>