<?xml version="1.0" encoding="utf-8"?>
<svg version="1.1" xmlns:xlink="http://www.w3.org/1999/xlink" width="17px" height="16px" xmlns="http://www.w3.org/2000/svg">
  <g transform="matrix(1 0 0 1 -35 -428 )">
    <path d="M 10.42578125 9.8125  C 11.3214142628205 8.96955128205128  11.7692307692308 7.9551282051282  11.7692307692308 6.76923076923077  C 11.7692307692308 5.58333333333333  11.3214142628205 4.56891025641026  10.42578125 3.72596153846154  C 9.53014823717949 2.88301282051282  8.45232371794872 2.46153846153846  7.19230769230769 2.46153846153846  C 5.93229166666667 2.46153846153846  4.8544671474359 2.88301282051282  3.95883413461538 3.72596153846154  C 3.06320112179487 4.56891025641026  2.61538461538462 5.58333333333333  2.61538461538462 6.76923076923077  C 2.61538461538462 7.9551282051282  3.06320112179487 8.96955128205128  3.95883413461538 9.8125  C 4.8544671474359 10.6554487179487  5.93229166666667 11.0769230769231  7.19230769230769 11.0769230769231  C 8.45232371794872 11.0769230769231  9.53014823717949 10.6554487179487  10.42578125 9.8125  Z M 16.6219951923077 13.9038461538462  C 16.8739983974359 14.1410256410256  17 14.4294871794872  17 14.7692307692308  C 17 15.1025641025641  16.8705929487179 15.3910256410256  16.6117788461538 15.6346153846154  C 16.3529647435897 15.8782051282051  16.0464743589744 16  15.6923076923077 16  C 15.3245192307692 16  15.0180288461538 15.8782051282051  14.7728365384615 15.6346153846154  L 11.2686298076923 12.3461538461538  C 10.0494791666667 13.1410256410256  8.69070512820513 13.5384615384615  7.19230769230769 13.5384615384615  C 6.21834935897436 13.5384615384615  5.28695913461538 13.3605769230769  4.39813701923077 13.0048076923077  C 3.50931490384615 12.6490384615385  2.74308894230769 12.1682692307692  2.09945913461538 11.5625  C 1.45582932692308 10.9567307692308  0.945012019230769 10.2355769230769  0.567007211538462 9.39903846153846  C 0.189002403846154 8.5625  0 7.68589743589743  0 6.76923076923077  C 0 5.8525641025641  0.189002403846154 4.97596153846154  0.567007211538462 4.13942307692308  C 0.945012019230769 3.30288461538462  1.45582932692308 2.58173076923077  2.09945913461538 1.97596153846154  C 2.74308894230769 1.37019230769231  3.50931490384615 0.889423076923077  4.39813701923077 0.533653846153847  C 5.28695913461538 0.177884615384615  6.21834935897436 0  7.19230769230769 0  C 8.16626602564103 0  9.09765625 0.177884615384615  9.98647836538462 0.533653846153847  C 10.8753004807692 0.889423076923077  11.6415264423077 1.37019230769231  12.28515625 1.97596153846154  C 12.9287860576923 2.58173076923077  13.4396033653846 3.30288461538462  13.8176081730769 4.13942307692308  C 14.1956129807692 4.97596153846154  14.3846153846154 5.8525641025641  14.3846153846154 6.76923076923077  C 14.3846153846154 8.17948717948718  13.9623397435897 9.45833333333333  13.1177884615385 10.6057692307692  L 16.6219951923077 13.9038461538462  Z " fill-rule="nonzero" fill="#333333" stroke="none" transform="matrix(1 0 0 1 35 428 )" />
  </g>
</svg>