<?xml version="1.0" encoding="utf-8"?>
<svg version="1.1" xmlns:xlink="http://www.w3.org/1999/xlink" width="27px" height="27px" xmlns="http://www.w3.org/2000/svg">
  <g>
    <path d="M 16.4612379807692 10.5387620192308  C 16.5640024038462 10.6415264423077  16.6153846153846 10.7632211538462  16.6153846153846 10.9038461538462  L 16.6153846153846 11.9423076923077  C 16.6153846153846 12.0829326923077  16.5640024038462 12.2046274038462  16.4612379807692 12.3073918269231  C 16.3584735576923 12.41015625  16.2367788461538 12.4615384615385  16.0961538461538 12.4615384615385  L 12.4615384615385 12.4615384615385  L 12.4615384615385 16.0961538461538  C 12.4615384615385 16.2367788461538  12.41015625 16.3584735576923  12.3073918269231 16.4612379807692  C 12.2046274038462 16.5640024038462  12.0829326923077 16.6153846153846  11.9423076923077 16.6153846153846  L 10.9038461538462 16.6153846153846  C 10.7632211538462 16.6153846153846  10.6415264423077 16.5640024038462  10.5387620192308 16.4612379807692  C 10.4359975961538 16.3584735576923  10.3846153846154 16.2367788461538  10.3846153846154 16.0961538461538  L 10.3846153846154 12.4615384615385  L 6.75 12.4615384615385  C 6.609375 12.4615384615385  6.48768028846154 12.41015625  6.38491586538462 12.3073918269231  C 6.28215144230769 12.2046274038462  6.23076923076923 12.0829326923077  6.23076923076923 11.9423076923077  L 6.23076923076923 10.9038461538462  C 6.23076923076923 10.7632211538462  6.28215144230769 10.6415264423077  6.38491586538462 10.5387620192308  C 6.48768028846154 10.4359975961538  6.609375 10.3846153846154  6.75 10.3846153846154  L 10.3846153846154 10.3846153846154  L 10.3846153846154 6.75  C 10.3846153846154 6.609375  10.4359975961538 6.48768028846154  10.5387620192308 6.38491586538462  C 10.6415264423077 6.28215144230769  10.7632211538462 6.23076923076923  10.9038461538462 6.23076923076923  L 11.9423076923077 6.23076923076923  C 12.0829326923077 6.23076923076923  12.2046274038462 6.28215144230769  12.3073918269231 6.38491586538462  C 12.41015625 6.48768028846154  12.4615384615385 6.609375  12.4615384615385 6.75  L 12.4615384615385 10.3846153846154  L 16.0961538461538 10.3846153846154  C 16.2367788461538 10.3846153846154  16.3584735576923 10.4359975961538  16.4612379807692 10.5387620192308  Z M 16.55859375 16.55859375  C 17.9810697115385 15.1361177884615  18.6923076923077 13.4242788461538  18.6923076923077 11.4230769230769  C 18.6923076923077 9.421875  17.9810697115385 7.71003605769231  16.55859375 6.28756009615385  C 15.1361177884615 4.86508413461538  13.4242788461538 4.15384615384615  11.4230769230769 4.15384615384615  C 9.421875 4.15384615384615  7.71003605769231 4.86508413461538  6.28756009615385 6.28756009615385  C 4.86508413461539 7.71003605769231  4.15384615384615 9.421875  4.15384615384615 11.4230769230769  C 4.15384615384615 13.4242788461538  4.86508413461539 15.1361177884615  6.28756009615385 16.55859375  C 7.71003605769231 17.9810697115385  9.421875 18.6923076923077  11.4230769230769 18.6923076923077  C 13.4242788461538 18.6923076923077  15.1361177884615 17.9810697115385  16.55859375 16.55859375  Z M 26.3996394230769 23.4627403846154  C 26.7998798076923 23.8629807692308  27 24.3497596153846  27 24.9230769230769  C 27 25.4963942307692  26.7971754807692 25.9858774038462  26.3915264423077 26.3915264423077  C 25.9858774038462 26.7971754807692  25.4963942307692 27  24.9230769230769 27  C 24.3389423076923 27  23.8521634615385 26.7944711538462  23.4627403846154 26.3834134615385  L 17.8972355769231 20.8341346153846  C 15.9609375 22.1754807692308  13.8028846153846 22.8461538461538  11.4230769230769 22.8461538461538  C 9.87620192307692 22.8461538461538  8.39693509615385 22.5459735576923  6.98527644230769 21.9456129807692  C 5.57361778846154 21.3452524038462  4.35667067307692 20.5339543269231  3.33443509615385 19.51171875  C 2.31219951923077 18.4894831730769  1.50090144230769 17.2725360576923  0.900540865384615 15.8608774038462  C 0.300180288461538 14.44921875  0 12.9699519230769  0 11.4230769230769  C 0 9.87620192307692  0.300180288461538 8.39693509615385  0.900540865384615 6.98527644230769  C 1.50090144230769 5.57361778846154  2.31219951923077 4.35667067307692  3.33443509615385 3.33443509615385  C 4.35667067307692 2.31219951923077  5.57361778846154 1.50090144230769  6.98527644230769 0.900540865384616  C 8.39693509615385 0.300180288461538  9.87620192307692 0  11.4230769230769 0  C 12.9699519230769 0  14.44921875 0.300180288461538  15.8608774038462 0.900540865384616  C 17.2725360576923 1.50090144230769  18.4894831730769 2.31219951923077  19.51171875 3.33443509615385  C 20.5339543269231 4.35667067307692  21.3452524038462 5.57361778846154  21.9456129807692 6.98527644230769  C 22.5459735576923 8.39693509615385  22.8461538461538 9.87620192307692  22.8461538461538 11.4230769230769  C 22.8461538461538 13.8028846153846  22.1754807692308 15.9609375  20.8341346153846 17.8972355769231  L 26.3996394230769 23.4627403846154  Z " fill-rule="nonzero" fill="#333333" stroke="none" />
  </g>
</svg>