<?xml version="1.0" encoding="utf-8"?>
<svg version="1.1" xmlns:xlink="http://www.w3.org/1999/xlink" width="19px" height="18px" xmlns="http://www.w3.org/2000/svg">
  <g transform="matrix(1 0 0 1 -278 -229 )">
    <path d="M 18.4571428571429 15.2816326530612  C 19.1938775510204 14.730612244898  19.1551020408163 13.7020408163265  18.4183673469388 13.1877551020408  L 16.0530612244898 11.3877551020408  C 15.5102040816327 10.9836734693878  14.734693877551 10.9469387755102  14.1918367346939 11.3510204081633  L 12.1755102040816 12.7469387755102  C 11.9428571428571 12.930612244898  11.5938775510204 12.8938775510204  11.3612244897959 12.6734693877551  L 8.33673469387755 10.1020408163265  L 5.62244897959184 7.23673469387755  C 5.38979591836735 7.01632653061224  5.38979591836735 6.72244897959183  5.54489795918367 6.46530612244898  L 7.01836734693877 4.55510204081632  C 7.44489795918367 4.04081632653061  7.40612244897959 3.30612244897959  6.97959183673469 2.79183673469387  L 5.07959183673469 0.551020408163262  C 4.49795918367347 -0.110204081632656  3.45102040816326 -0.183673469387758  2.79183673469388 0.440816326530609  L 0.775510204081631 2.35102040816326  C 0.465306122448978 2.64489795918367  0.310204081632651 3.04897959183673  0.310204081632651 3.45306122448979  C 0.504081632653059 7.2  2.28775510204081 10.7632653061224  4.92448979591837 13.2612244897959  C 7.56122448979592 15.7591836734694  11.3224489795918 17.4489795918367  15.2775510204082 17.6326530612245  C 15.7040816326531 17.669387755102  16.130612244898 17.4857142857143  16.4408163265306 17.1918367346939  L 18.4571428571429 15.2816326530612  Z " fill-rule="nonzero" fill="#8080ff" stroke="none" transform="matrix(1 0 0 1 278 229 )" />
  </g>
</svg>