<?xml version="1.0" encoding="utf-8"?>
<svg version="1.1" xmlns:xlink="http://www.w3.org/1999/xlink" width="13px" height="12px" xmlns="http://www.w3.org/2000/svg">
  <g transform="matrix(1 0 0 1 -221 -142 )">
    <path d="M 12.9869419642857 6.13157894736842  C 12.98984375 5.33026315789474  12.8186383928571 4.55263157894737  12.48203125 3.82105263157895  C 12.1565108807763 3.1164803991972  11.6829434459139 2.47607394821067  11.0877232142857 1.93552631578947  C 10.4942827627412 1.39403707667871  9.78934907861596 0.963520797779429  9.01294642857143 0.668421052631579  C 8.21758535505465 0.364646758993836  7.36301678386041 0.208932157770534  6.5 0.210526315789474  L 6.47098214285714 0.210526315789474  C 5.59319196428571 0.214473684210526  4.74441964285714 0.372368421052632  3.94497767857143 0.682894736842106  C 3.17523649975576 0.981019639759745  2.47692093565236 1.41230056438122  1.8890625 1.95263157894737  C 1.29960926009632 2.49196561284072  0.831466193254328 3.13013249575946  0.510714285714286 3.83157894736842  C 0.177756210874871 4.56100326171107  0.00904494534517948 5.34345732762675  0.0145089285714286 6.13289473684211  C 0.0188616071428571 7.04605263157895  0.259709821428572 7.95263157894737  0.709486607142857 8.76315789473684  L 0.709486607142857 10.7631578947368  C 0.709486607142857 11.0973684210526  1.00837053571429 11.3684210526316  1.37544642857143 11.3684210526316  L 3.57790178571429 11.3684210526316  C 4.47582167683073 11.7793216007714  5.46668582627189 11.995525497858  6.47243303571429 12  L 6.50290178571429 12  C 7.37053571428571 12  8.21060267857143 11.8473684210526  9.00279017857143 11.5486842105263  C 9.77526452971051 11.2571039181979  10.4775656515806 10.8316069094997  11.0703125 10.2960526315789  C 11.6680803571429 9.7578947368421  12.1381696428571 9.12894736842105  12.4675223214286 8.42763157894737  C 12.8084821428571 7.70131578947368  12.9825892857143 6.92894736842105  12.9869419642857 6.13157894736842  Z M 4.29899553571429 6.10526315789474  C 4.29899553571429 6.45394736842105  3.98850446428571 6.73684210526316  3.60401785714286 6.73684210526316  C 3.22098214285714 6.73684210526316  2.90904017857143 6.45394736842105  2.90904017857143 6.10526315789474  C 2.90904017857143 5.75657894736842  3.22098214285714 5.47368421052632  3.60401785714286 5.47368421052632  C 3.98705357142857 5.47368421052632  4.29899553571429 5.75657894736842  4.29899553571429 6.10526315789474  Z M 7.19497767857143 6.10526315789474  C 7.19497767857143 6.45394736842105  6.88303571428571 6.73684210526316  6.5 6.73684210526316  C 6.11696428571429 6.73684210526316  5.80502232142857 6.45394736842105  5.80502232142857 6.10526315789474  C 5.80502232142857 5.75657894736842  6.11696428571429 5.47368421052632  6.5 5.47368421052632  C 6.88303571428571 5.47368421052632  7.19497767857143 5.75657894736842  7.19497767857143 6.10526315789474  Z M 10.0909598214286 6.10526315789474  C 10.0909598214286 6.45394736842105  9.77901785714286 6.73684210526316  9.39598214285714 6.73684210526316  C 9.01294642857143 6.73684210526316  8.70100446428571 6.45394736842105  8.70100446428571 6.10526315789474  C 8.70100446428571 5.75657894736842  9.01294642857143 5.47368421052632  9.39598214285714 5.47368421052632  C 9.77901785714286 5.47368421052632  10.0909598214286 5.75657894736842  10.0909598214286 6.10526315789474  Z " fill-rule="nonzero" fill="#8080ff" stroke="none" transform="matrix(1 0 0 1 221 142 )" />
  </g>
</svg>