<?xml version="1.0" encoding="utf-8"?>
<svg version="1.1" xmlns:xlink="http://www.w3.org/1999/xlink" width="15px" height="13px" xmlns="http://www.w3.org/2000/svg">
  <g>
    <path d="M 7.86830357142857 12.84765625  C 7.76785714285714 12.94921875  7.64508928571429 13  7.5 13  C 7.35491071428571 13  7.23214285714286 12.94921875  7.13169642857143 12.84765625  L 1.90848214285714 7.75260416666667  C 1.85267857142857 7.70746527777778  1.77594866071429 7.63411458333333  1.67829241071429 7.53255208333333  C 1.58063616071429 7.43098958333333  1.42578125 7.24620225694444  1.21372767857143 6.97819010416667  C 1.00167410714286 6.71017795138889  0.811941964285714 6.43511284722222  0.64453125 6.15299479166667  C 0.477120535714286 5.87087673611111  0.327845982142857 5.52951388888889  0.196707589285714 5.12890625  C 0.0655691964285714 4.72829861111111  0 4.33897569444444  0 3.9609375  C 0 2.71961805555555  0.354352678571428 1.74913194444444  1.06305803571429 1.04947916666667  C 1.77176339285714 0.349826388888889  2.75111607142857 0  4.00111607142857 0  C 4.34709821428571 0  4.70005580357143 0.0606553819444436  5.05998883928571 0.181966145833334  C 5.419921875 0.303276909722221  5.75474330357143 0.466905381944444  6.064453125 0.6728515625  C 6.37416294642857 0.878797743055555  6.640625 1.07204861111111  6.86383928571429 1.25260416666667  C 7.08705357142857 1.43315972222222  7.29910714285714 1.625  7.5 1.828125  C 7.70089285714286 1.625  7.91294642857143 1.43315972222222  8.13616071428572 1.25260416666667  C 8.359375 1.07204861111111  8.62583705357143 0.878797743055555  8.935546875 0.6728515625  C 9.24525669642857 0.466905381944444  9.580078125 0.303276909722221  9.94001116071428 0.181966145833334  C 10.2999441964286 0.0606553819444436  10.6529017857143 0  10.9988839285714 0  C 12.2488839285714 0  13.2282366071429 0.349826388888889  13.9369419642857 1.04947916666667  C 14.6456473214286 1.74913194444444  15 2.71961805555555  15 3.9609375  C 15 5.20789930555556  14.3610491071429 6.47743055555556  13.0831473214286 7.76953125  L 7.86830357142857 12.84765625  Z " fill-rule="nonzero" fill="#d9001b" stroke="none" />
  </g>
</svg>