<?xml version="1.0" encoding="utf-8"?>
<svg version="1.1" xmlns:xlink="http://www.w3.org/1999/xlink" width="13px" height="12px" xmlns="http://www.w3.org/2000/svg">
  <g transform="matrix(1 0 0 1 -209 -141 )">
    <path d="M 12.6285714285714 10.1877551020408  C 13.1326530612245 9.8204081632653  13.1061224489796 9.13469387755102  12.6020408163265 8.79183673469388  L 10.9836734693878 7.59183673469388  C 10.6122448979592 7.32244897959184  10.0816326530612 7.29795918367347  9.71020408163265 7.56734693877551  L 8.33061224489796 8.49795918367347  C 8.17142857142857 8.62040816326531  7.93265306122449 8.59591836734694  7.7734693877551 8.44897959183673  L 5.70408163265306 6.73469387755102  L 3.8469387755102 4.82448979591837  C 3.68775510204082 4.67755102040816  3.68775510204082 4.48163265306122  3.79387755102041 4.31020408163265  L 4.80204081632653 3.03673469387755  C 5.09387755102041 2.69387755102041  5.06734693877551 2.20408163265306  4.77551020408163 1.86122448979592  L 3.47551020408163 0.367346938775508  C 3.07755102040816 -0.0734693877551042  2.36122448979592 -0.122448979591839  1.91020408163265 0.293877551020406  L 0.530612244897958 1.56734693877551  C 0.318367346938774 1.76326530612245  0.212244897959183 2.03265306122449  0.212244897959183 2.30204081632653  C 0.344897959183672 4.8  1.56530612244898 7.17551020408163  3.36938775510204 8.84081632653061  C 5.1734693877551 10.5061224489796  7.7469387755102 11.6326530612245  10.4530612244898 11.7551020408163  C 10.7448979591837 11.7795918367347  11.0367346938775 11.6571428571429  11.2489795918367 11.4612244897959  L 12.6285714285714 10.1877551020408  Z " fill-rule="nonzero" fill="#333333" stroke="none" transform="matrix(1 0 0 1 209 141 )" />
  </g>
</svg>