<?xml version="1.0" encoding="utf-8"?>
<svg version="1.1" xmlns:xlink="http://www.w3.org/1999/xlink" width="19px" height="18px" xmlns="http://www.w3.org/2000/svg">
  <g transform="matrix(1 0 0 1 -278 -189 )">
    <path d="M 18.9809151785714 9.19736842105263  C 18.98515625 7.99539473684211  18.7349330357143 6.82894736842105  18.24296875 5.73157894736842  C 17.7672082103653 4.6747205987958  17.0750711901819 3.714110922316  16.2051339285714 2.90328947368421  C 15.3377978840063 2.09105561501807  14.3075101918233 1.44528119666914  13.1727678571429 1.00263157894737  C 12.0103170573876 0.546970138490754  10.7613322225652 0.3133982366558  9.5 0.315789473684211  L 9.45758928571429 0.315789473684211  C 8.17466517857143 0.321710526315789  6.93415178571429 0.558552631578947  5.76573660714286 1.02434210526316  C 4.6407302688738 1.47152945963962  3.62011521364575 2.11845084657183  2.7609375 2.92894736842105  C 1.89942891860232 3.73794841926108  1.21521982091017 4.69519874363919  0.746428571428571 5.74736842105263  C 0.259797538970965 6.84150489256661  0.0132195355044931 8.01518599144012  0.0212053571428571 9.19934210526316  C 0.0275669642857142 10.5690789473684  0.379575892857143 11.9289473684211  1.03694196428571 13.1447368421053  L 1.03694196428571 16.1447368421053  C 1.03694196428571 16.6460526315789  1.47377232142857 17.0526315789474  2.01026785714286 17.0526315789474  L 5.22924107142857 17.0526315789474  C 6.54158552767568 17.668982401157  7.98977159224354 17.993288246787  9.45970982142857 18  L 9.50424107142857 18  C 10.7723214285714 18  12.0001116071429 17.7710526315789  13.1579241071429 17.3230263157895  C 14.2869250818846 16.8856558772969  15.3133651830793 16.2474103642495  16.1796875 15.4440789473684  C 17.0533482142857 14.6368421052632  17.7404017857143 13.6934210526316  18.2217633928571 12.6414473684211  C 18.7200892857143 11.5519736842105  18.9745535714286 10.3934210526316  18.9809151785714 9.19736842105263  Z M 6.28314732142857 9.15789473684211  C 6.28314732142857 9.68092105263158  5.82935267857143 10.1052631578947  5.26741071428571 10.1052631578947  C 4.70758928571429 10.1052631578947  4.25167410714286 9.68092105263158  4.25167410714286 9.15789473684211  C 4.25167410714286 8.63486842105263  4.70758928571429 8.21052631578947  5.26741071428571 8.21052631578947  C 5.82723214285714 8.21052631578947  6.28314732142857 8.63486842105263  6.28314732142857 9.15789473684211  Z M 10.5157366071429 9.15789473684211  C 10.5157366071429 9.68092105263158  10.0598214285714 10.1052631578947  9.5 10.1052631578947  C 8.94017857142857 10.1052631578947  8.48426339285714 9.68092105263158  8.48426339285714 9.15789473684211  C 8.48426339285714 8.63486842105263  8.94017857142857 8.21052631578947  9.5 8.21052631578947  C 10.0598214285714 8.21052631578947  10.5157366071429 8.63486842105263  10.5157366071429 9.15789473684211  Z M 14.7483258928571 9.15789473684211  C 14.7483258928571 9.68092105263158  14.2924107142857 10.1052631578947  13.7325892857143 10.1052631578947  C 13.1727678571429 10.1052631578947  12.7168526785714 9.68092105263158  12.7168526785714 9.15789473684211  C 12.7168526785714 8.63486842105263  13.1727678571429 8.21052631578947  13.7325892857143 8.21052631578947  C 14.2924107142857 8.21052631578947  14.7483258928571 8.63486842105263  14.7483258928571 9.15789473684211  Z " fill-rule="nonzero" fill="#333333" stroke="none" transform="matrix(1 0 0 1 278 189 )" />
  </g>
</svg>