<?xml version="1.0" encoding="utf-8"?>
<svg version="1.1" xmlns:xlink="http://www.w3.org/1999/xlink" width="14px" height="16px" xmlns="http://www.w3.org/2000/svg">
  <g transform="matrix(1 0 0 1 -35 -848 )">
    <path d="M 8.5859375 9.8125  C 9.32351762820513 8.96955128205128  9.69230769230769 7.9551282051282  9.69230769230769 6.76923076923077  C 9.69230769230769 5.58333333333333  9.32351762820513 4.56891025641026  8.5859375 3.72596153846154  C 7.84835737179487 2.88301282051282  6.96073717948718 2.46153846153846  5.92307692307692 2.46153846153846  C 4.88541666666667 2.46153846153846  3.99779647435898 2.88301282051282  3.26021634615385 3.72596153846154  C 2.52263621794872 4.56891025641026  2.15384615384615 5.58333333333333  2.15384615384615 6.76923076923077  C 2.15384615384615 7.9551282051282  2.52263621794872 8.96955128205128  3.26021634615385 9.8125  C 3.99779647435898 10.6554487179487  4.88541666666667 11.0769230769231  5.92307692307692 11.0769230769231  C 6.96073717948718 11.0769230769231  7.84835737179487 10.6554487179487  8.5859375 9.8125  Z M 13.6887019230769 13.9038461538462  C 13.896233974359 14.1410256410256  14 14.4294871794872  14 14.7692307692308  C 14 15.1025641025641  13.8934294871795 15.3910256410256  13.6802884615385 15.6346153846154  C 13.4671474358974 15.8782051282051  13.2147435897436 16  12.9230769230769 16  C 12.6201923076923 16  12.3677884615385 15.8782051282051  12.1658653846154 15.6346153846154  L 9.28004807692308 12.3461538461538  C 8.27604166666667 13.1410256410256  7.15705128205128 13.5384615384615  5.92307692307692 13.5384615384615  C 5.12099358974359 13.5384615384615  4.35396634615385 13.3605769230769  3.62199519230769 13.0048076923077  C 2.89002403846154 12.6490384615385  2.25901442307692 12.1682692307692  1.72896634615385 11.5625  C 1.19891826923077 10.9567307692308  0.778245192307693 10.2355769230769  0.466947115384615 9.39903846153846  C 0.155649038461538 8.5625  0 7.68589743589743  0 6.76923076923077  C 0 5.8525641025641  0.155649038461538 4.97596153846154  0.466947115384615 4.13942307692308  C 0.778245192307693 3.30288461538462  1.19891826923077 2.58173076923077  1.72896634615385 1.97596153846154  C 2.25901442307692 1.37019230769231  2.89002403846154 0.889423076923077  3.62199519230769 0.533653846153847  C 4.35396634615385 0.177884615384615  5.12099358974359 0  5.92307692307692 0  C 6.72516025641026 0  7.4921875 0.177884615384615  8.22415865384615 0.533653846153847  C 8.95612980769231 0.889423076923077  9.58713942307692 1.37019230769231  10.1171875 1.97596153846154  C 10.6472355769231 2.58173076923077  11.0679086538462 3.30288461538462  11.3792067307692 4.13942307692308  C 11.6905048076923 4.97596153846154  11.8461538461538 5.8525641025641  11.8461538461538 6.76923076923077  C 11.8461538461538 8.17948717948718  11.4983974358974 9.45833333333333  10.8028846153846 10.6057692307692  L 13.6887019230769 13.9038461538462  Z " fill-rule="nonzero" fill="#333333" stroke="none" transform="matrix(1 0 0 1 35 848 )" />
  </g>
</svg>