<?xml version="1.0" encoding="utf-8"?>
<svg version="1.1" xmlns:xlink="http://www.w3.org/1999/xlink" width="16px" height="16px" viewBox="347 1656  16 16" xmlns="http://www.w3.org/2000/svg">
  <path d="M 355 1656  C 359.48 1656  363 1659.52  363 1664  C 363 1668.48  359.48 1672  355 1672  C 350.52 1672  347 1668.48  347 1664  C 347 1659.52  350.52 1656  355 1656  Z " fill-rule="nonzero" fill="#f0f0f0" stroke="none" />
  <path d="M 355 1656.5  C 359.2 1656.5  362.5 1659.8  362.5 1664  C 362.5 1668.2  359.2 1671.5  355 1671.5  C 350.8 1671.5  347.5 1668.2  347.5 1664  C 347.5 1659.8  350.8 1656.5  355 1656.5  Z " stroke-width="1" stroke="#797979" fill="none" />
  <path d="M 355 1668  C 352.76 1668  351 1666.24  351 1664  C 351 1661.76  352.76 1660  355 1660  C 357.24 1660  359 1661.76  359 1664  C 359 1666.24  357.24 1668  355 1668  " fill-rule="nonzero" fill="#797979" stroke="none" />
</svg>