<?xml version="1.0" encoding="utf-8"?>
<svg version="1.1" xmlns:xlink="http://www.w3.org/1999/xlink" width="16px" height="16px" viewBox="347 1548  16 16" xmlns="http://www.w3.org/2000/svg">
  <path d="M 355 1548  C 359.48 1548  363 1551.52  363 1556  C 363 1560.48  359.48 1564  355 1564  C 350.52 1564  347 1560.48  347 1556  C 347 1551.52  350.52 1548  355 1548  Z " fill-rule="nonzero" fill="#f0f0f0" stroke="none" />
  <path d="M 355 1548.5  C 359.2 1548.5  362.5 1551.8  362.5 1556  C 362.5 1560.2  359.2 1563.5  355 1563.5  C 350.8 1563.5  347.5 1560.2  347.5 1556  C 347.5 1551.8  350.8 1548.5  355 1548.5  Z " stroke-width="1" stroke="#797979" fill="none" />
  <path d="M 355 1560  C 352.76 1560  351 1558.24  351 1556  C 351 1553.76  352.76 1552  355 1552  C 357.24 1552  359 1553.76  359 1556  C 359 1558.24  357.24 1560  355 1560  " fill-rule="nonzero" fill="#797979" stroke="none" />
</svg>