<?xml version="1.0" encoding="utf-8"?>
<svg version="1.1" xmlns:xlink="http://www.w3.org/1999/xlink" width="16px" height="16px" viewBox="351 2196.5  16 16" xmlns="http://www.w3.org/2000/svg">
  <path d="M 359 2196.5  C 363.48 2196.5  367 2200.02  367 2204.5  C 367 2208.98  363.48 2212.5  359 2212.5  C 354.52 2212.5  351 2208.98  351 2204.5  C 351 2200.02  354.52 2196.5  359 2196.5  Z " fill-rule="nonzero" fill="#ffffff" stroke="none" />
  <path d="M 359 2197  C 363.2 2197  366.5 2200.3  366.5 2204.5  C 366.5 2208.7  363.2 2212  359 2212  C 354.8 2212  351.5 2208.7  351.5 2204.5  C 351.5 2200.3  354.8 2197  359 2197  Z " stroke-width="1" stroke="#797979" fill="none" />
  <path d="M 359 2208.5  C 356.76 2208.5  355 2206.74  355 2204.5  C 355 2202.26  356.76 2200.5  359 2200.5  C 361.24 2200.5  363 2202.26  363 2204.5  C 363 2206.74  361.24 2208.5  359 2208.5  " fill-rule="nonzero" fill="#797979" stroke="none" />
</svg>