<?xml version="1.0" encoding="utf-8"?>
<svg version="1.1" xmlns:xlink="http://www.w3.org/1999/xlink" width="16px" height="16px" viewBox="351 2162.5  16 16" xmlns="http://www.w3.org/2000/svg">
  <path d="M 359 2162.5  C 363.48 2162.5  367 2166.02  367 2170.5  C 367 2174.98  363.48 2178.5  359 2178.5  C 354.52 2178.5  351 2174.98  351 2170.5  C 351 2166.02  354.52 2162.5  359 2162.5  Z " fill-rule="nonzero" fill="#f0f0f0" stroke="none" />
  <path d="M 359 2163  C 363.2 2163  366.5 2166.3  366.5 2170.5  C 366.5 2174.7  363.2 2178  359 2178  C 354.8 2178  351.5 2174.7  351.5 2170.5  C 351.5 2166.3  354.8 2163  359 2163  Z " stroke-width="1" stroke="#797979" fill="none" />
  <path d="M 359 2174.5  C 356.76 2174.5  355 2172.74  355 2170.5  C 355 2168.26  356.76 2166.5  359 2166.5  C 361.24 2166.5  363 2168.26  363 2170.5  C 363 2172.74  361.24 2174.5  359 2174.5  " fill-rule="nonzero" fill="#797979" stroke="none" />
</svg>