<?xml version="1.0" encoding="utf-8"?>
<svg version="1.1" xmlns:xlink="http://www.w3.org/1999/xlink" width="16px" height="16px" viewBox="351 2314.5  16 16" xmlns="http://www.w3.org/2000/svg">
  <path d="M 359 2314.5  C 363.48 2314.5  367 2318.02  367 2322.5  C 367 2326.98  363.48 2330.5  359 2330.5  C 354.52 2330.5  351 2326.98  351 2322.5  C 351 2318.02  354.52 2314.5  359 2314.5  Z " fill-rule="nonzero" fill="#f0f0f0" stroke="none" />
  <path d="M 359 2315  C 363.2 2315  366.5 2318.3  366.5 2322.5  C 366.5 2326.7  363.2 2330  359 2330  C 354.8 2330  351.5 2326.7  351.5 2322.5  C 351.5 2318.3  354.8 2315  359 2315  Z " stroke-width="1" stroke="#797979" fill="none" />
  <path d="M 359 2326.5  C 356.76 2326.5  355 2324.74  355 2322.5  C 355 2320.26  356.76 2318.5  359 2318.5  C 361.24 2318.5  363 2320.26  363 2322.5  C 363 2324.74  361.24 2326.5  359 2326.5  " fill-rule="nonzero" fill="#797979" stroke="none" />
</svg>