<?xml version="1.0" encoding="utf-8"?>
<svg version="1.1" xmlns:xlink="http://www.w3.org/1999/xlink" width="16px" height="16px" viewBox="341 1133  16 16" xmlns="http://www.w3.org/2000/svg">
  <path d="M 349 1133  C 353.48 1133  357 1136.52  357 1141  C 357 1145.48  353.48 1149  349 1149  C 344.52 1149  341 1145.48  341 1141  C 341 1136.52  344.52 1133  349 1133  Z " fill-rule="nonzero" fill="#f0f0f0" stroke="none" />
  <path d="M 349 1133.5  C 353.2 1133.5  356.5 1136.8  356.5 1141  C 356.5 1145.2  353.2 1148.5  349 1148.5  C 344.8 1148.5  341.5 1145.2  341.5 1141  C 341.5 1136.8  344.8 1133.5  349 1133.5  Z " stroke-width="1" stroke="#797979" fill="none" />
  <path d="M 349 1145  C 346.76 1145  345 1143.24  345 1141  C 345 1138.76  346.76 1137  349 1137  C 351.24 1137  353 1138.76  353 1141  C 353 1143.24  351.24 1145  349 1145  " fill-rule="nonzero" fill="#797979" stroke="none" />
</svg>