<?xml version="1.0" encoding="utf-8"?>
<svg version="1.1" xmlns:xlink="http://www.w3.org/1999/xlink" width="16px" height="16px" viewBox="266 1133  16 16" xmlns="http://www.w3.org/2000/svg">
  <path d="M 274 1133  C 278.48 1133  282 1136.52  282 1141  C 282 1145.48  278.48 1149  274 1149  C 269.52 1149  266 1145.48  266 1141  C 266 1136.52  269.52 1133  274 1133  Z " fill-rule="nonzero" fill="#ffffff" stroke="none" />
  <path d="M 274 1133.5  C 278.2 1133.5  281.5 1136.8  281.5 1141  C 281.5 1145.2  278.2 1148.5  274 1148.5  C 269.8 1148.5  266.5 1145.2  266.5 1141  C 266.5 1136.8  269.8 1133.5  274 1133.5  Z " stroke-width="1" stroke="#797979" fill="none" />
  <path d="M 274 1145  C 271.76 1145  270 1143.24  270 1141  C 270 1138.76  271.76 1137  274 1137  C 276.24 1137  278 1138.76  278 1141  C 278 1143.24  276.24 1145  274 1145  " fill-rule="nonzero" fill="#797979" stroke="none" />
</svg>