<?xml version="1.0" encoding="utf-8"?>
<svg version="1.1" xmlns:xlink="http://www.w3.org/1999/xlink" width="18px" height="16px" xmlns="http://www.w3.org/2000/svg">
  <g transform="matrix(1 0 0 1 -235 -42 )">
    <path d="M 1.8225 6.56410256410256  C 1.962 4.38974358974359  3.1905 2.48615384615385  5.022 1.29641025641026  L 3.735 0.123076923076923  C 1.5795 1.62051282051282  0.1575 3.93435897435897  0.0224999999999999 6.56410256410256  L 1.8225 6.56410256410256  Z M 12.9825 1.29230769230769  C 14.8095 2.48615384615385  16.038 4.38974358974359  16.1775 6.56410256410256  L 17.9775 6.56410256410256  C 17.8425 3.93435897435897  16.4205 1.62051282051282  14.265 0.123076923076923  L 12.9825 1.29230769230769  Z M 14.4 11.0769230769231  L 14.4 6.97435897435897  C 14.4 4.45128205128205  12.9285 2.34666666666667  10.35 1.78871794871795  L 10.35 1.23076923076923  C 10.35 0.54974358974359  9.747 0  9 0  C 8.253 0  7.65 0.54974358974359  7.65 1.23076923076923  L 7.65 1.78871794871795  C 5.0715 2.34666666666667  3.6 4.45128205128205  3.6 6.97435897435897  L 3.6 11.0769230769231  L 1.8 12.7179487179487  L 1.8 13.5384615384615  L 16.2 13.5384615384615  L 16.2 12.7179487179487  L 14.4 11.0769230769231  Z M 7.2 14.3589743589744  C 7.2 15.265641025641  8.0055 16  9 16  C 9.126 16  9.2475 15.9876923076923  9.3645 15.9671794871795  C 9.9495 15.8564102564103  10.431 15.4871794871795  10.6605 14.9989743589744  C 10.7505 14.8020512820513  10.8 14.5887179487179  10.8 14.3589743589744  L 7.2 14.3589743589744  Z " fill-rule="nonzero" fill="#ffffff" stroke="none" transform="matrix(1 0 0 1 235 42 )" />
  </g>
</svg>