<?xml version="1.0" encoding="utf-8"?>
<svg version="1.1" xmlns:xlink="http://www.w3.org/1999/xlink" width="9px" height="5px" xmlns="http://www.w3.org/2000/svg">
  <g transform="matrix(1 0 0 1 -175 -407 )">
    <path d="M 0.245923704134783 1.4432509621225  C -0.0714163875592911 1.13588666651927  -0.0923654889669709 0.582925062946006  0.245923704134783 0.255707092746403  C 0.584212897236532 -0.0722461987345523  1.05517973258691 -0.0979824435817092  1.46873051222735 0.255707092746403  L 4.50091896782746 3.01095593395521  L 7.53310742342756 0.255707092746403  C 7.946658203068 -0.0979824435817092  8.4184009310631 -0.0722461987345523  8.75436244623067 0.255707092746403  C 9.09265163933242 0.582925062946006  9.07092664528002 1.13588666651927  8.75436244623067 1.4432509621225  C 8.43935003247078 1.75061525772572  5.11154647922901 4.75366737074861  5.11154647922901 4.75366737074861  C 4.94317777532287 4.91764401648909  4.72204837157516 5  4.50091896782746 5  C 4.27978956407975 5  4.05866016033204 4.91764401648909  3.88873967113644 4.75366737074861  C 3.88873967113644 4.75366737074861  0.562487903184126 1.75061525772572  0.245923704134783 1.4432509621225  Z " fill-rule="nonzero" fill="#333333" stroke="none" transform="matrix(1 0 0 1 175 407 )" />
  </g>
</svg>