<?xml version="1.0" encoding="utf-8"?>
<svg version="1.1" xmlns:xlink="http://www.w3.org/1999/xlink" width="12px" height="10px" xmlns="http://www.w3.org/2000/svg">
  <g transform="matrix(1 0 0 1 -610 -487 )">
    <path d="M 1.215 4.1025641025641  C 1.308 2.74358974358974  2.127 1.55384615384615  3.348 0.81025641025641  L 2.49 0.0769230769230769  C 1.053 1.01282051282051  0.105 2.45897435897436  0.0149999999999999 4.1025641025641  L 1.215 4.1025641025641  Z M 8.655 0.807692307692308  C 9.873 1.55384615384615  10.692 2.74358974358974  10.785 4.1025641025641  L 11.985 4.1025641025641  C 11.895 2.45897435897436  10.947 1.01282051282051  9.51 0.0769230769230771  L 8.655 0.807692307692308  Z M 9.6 6.92307692307692  L 9.6 4.35897435897436  C 9.6 2.78205128205128  8.619 1.46666666666667  6.9 1.11794871794872  L 6.9 0.769230769230769  C 6.9 0.343589743589744  6.498 0  6 0  C 5.502 0  5.1 0.343589743589744  5.1 0.769230769230769  L 5.1 1.11794871794872  C 3.381 1.46666666666667  2.4 2.78205128205128  2.4 4.35897435897436  L 2.4 6.92307692307692  L 1.2 7.94871794871795  L 1.2 8.46153846153846  L 10.8 8.46153846153846  L 10.8 7.94871794871795  L 9.6 6.92307692307692  Z M 4.8 8.97435897435897  C 4.8 9.54102564102564  5.337 10  6 10  C 6.084 10  6.165 9.99230769230769  6.243 9.97948717948718  C 6.633 9.91025641025641  6.954 9.67948717948718  7.107 9.37435897435897  C 7.167 9.25128205128205  7.2 9.11794871794872  7.2 8.97435897435897  L 4.8 8.97435897435897  Z " fill-rule="nonzero" fill="#ffffff" stroke="none" transform="matrix(1 0 0 1 610 487 )" />
  </g>
</svg>