<?xml version="1.0" encoding="utf-8"?>
<svg version="1.1" xmlns:xlink="http://www.w3.org/1999/xlink" width="12px" height="7px" xmlns="http://www.w3.org/2000/svg">
  <g transform="matrix(1 0 0 1 -159 -184 )">
    <path d="M 0.32789827217971 2.0205513469715  C -0.0952218500790548 1.59024133312698  -0.123153985289294 0.816095088124408  0.32789827217971 0.357989929844964  C 0.77895052964871 -0.101144678228373  1.40690631011588 -0.137175421014393  1.95830734963647 0.357989929844964  L 6.00122529043661 4.2153383075373  L 10.0441432312367 0.357989929844964  C 10.5955442707573 -0.137175421014393  11.2245345747508 -0.101144678228373  11.6724832616409 0.357989929844964  C 12.1235355191099 0.816095088124408  12.0945688603734 1.59024133312698  11.6724832616409 2.0205513469715  C 11.252466709961 2.45086136081601  6.81539530563868 6.65513431904806  6.81539530563868 6.65513431904806  C 6.59090370043049 6.88470162308473  6.29606449543355 7  6.00122529043661 7  C 5.70638608543967 7  5.41154688044273 6.88470162308473  5.18498622818192 6.65513431904806  C 5.18498622818192 6.65513431904806  0.749983870912168 2.45086136081601  0.32789827217971 2.0205513469715  Z " fill-rule="nonzero" fill="#ffffff" stroke="none" transform="matrix(1 0 0 1 159 184 )" />
  </g>
</svg>