<?xml version="1.0" encoding="utf-8"?>
<svg version="1.1" xmlns:xlink="http://www.w3.org/1999/xlink" width="7px" height="7px" xmlns="http://www.w3.org/2000/svg">
  <g transform="matrix(1 0 0 1 -373 -222 )">
    <path d="M 6.8 5.94285714285714  C 7.07142857142857 5.72857142857143  7.05714285714286 5.32857142857143  6.78571428571429 5.12857142857143  L 5.91428571428571 4.42857142857143  C 5.71428571428571 4.27142857142857  5.42857142857143 4.25714285714286  5.22857142857143 4.41428571428571  L 4.48571428571429 4.95714285714286  C 4.4 5.02857142857143  4.27142857142857 5.01428571428571  4.18571428571429 4.92857142857143  L 3.07142857142857 3.92857142857143  L 2.07142857142857 2.81428571428571  C 1.98571428571429 2.72857142857143  1.98571428571429 2.61428571428571  2.04285714285714 2.51428571428571  L 2.58571428571429 1.77142857142857  C 2.74285714285714 1.57142857142857  2.72857142857143 1.28571428571428  2.57142857142857 1.08571428571428  L 1.87142857142857 0.214285714285713  C 1.65714285714286 -0.0428571428571441  1.27142857142857 -0.0714285714285727  1.02857142857143 0.17142857142857  L 0.285714285714285 0.914285714285713  C 0.171428571428571 1.02857142857143  0.114285714285714 1.18571428571428  0.114285714285714 1.34285714285714  C 0.185714285714285 2.8  0.842857142857142 4.18571428571429  1.81428571428571 5.15714285714286  C 2.78571428571429 6.12857142857143  4.17142857142857 6.78571428571428  5.62857142857143 6.85714285714286  C 5.78571428571428 6.87142857142857  5.94285714285714 6.8  6.05714285714286 6.68571428571428  L 6.8 5.94285714285714  Z " fill-rule="nonzero" fill="#333333" stroke="none" transform="matrix(1 0 0 1 373 222 )" />
  </g>
</svg>