<?xml version="1.0" encoding="utf-8"?>
<svg version="1.1" xmlns:xlink="http://www.w3.org/1999/xlink" width="7px" height="7px" xmlns="http://www.w3.org/2000/svg">
  <g transform="matrix(1 0 0 1 -626 -146 )">
    <path d="M 6.95034950657895 6.03289473684211  C 6.94855057565789 5.96813322368421  6.92156661184211 5.90517064144737  6.87479440789474 5.8583984375  L 4.51459703947368 3.48920641447368  L 6.88019120065789 1.15059621710526  C 6.97733347039474 1.05345394736842  6.97733347039474 0.895148026315789  6.88019120065789 0.798005756578948  L 6.20739103618421 0.121607730263158  C 6.16061883223684 0.0748355263157898  6.09765625 0.049650493421053  6.03109580592105 0.049650493421053  C 5.96453536184211 0.049650493421053  5.90157277960526 0.0766344572368424  5.85480057565789 0.121607730263158  L 3.5 2.45302220394737  L 1.1416015625 0.123406661184211  C 1.09482935855263 0.0766344572368421  1.03186677631579 0.0514494243421053  0.965306332236842 0.0514494243421053  C 0.898745888157895 0.0514494243421053  0.835783305921053 0.0784333881578947  0.789011101973685 0.123406661184211  L 0.118009868421053 0.7998046875  C 0.0208675986842105 0.896946957236842  0.0208675986842105 1.05525287828947  0.118009868421053 1.15239514802632  L 2.48360402960526 3.49100534539474  L 0.125205592105263 5.8583984375  C 0.0784333881578949 5.90517064144737  0.0514494243421054 5.96813322368421  0.0514494243421054 6.03469366776316  C 0.0514494243421054 6.10125411184211  0.0766344572368424 6.16421669407895  0.125205592105263 6.21098889802632  L 0.798005756578948 6.88738692434211  C 0.846576891447369 6.93595805921053  0.909539473684211 6.96114309210526  0.974300986842105 6.96114309210526  C 1.03726356907895 6.96114309210526  1.10202508223684 6.93775699013158  1.15059621710526 6.88738692434211  L 3.5 4.52718955592105  L 5.85120271381579 6.88558799342105  C 5.89977384868421 6.93415912828947  5.96273643092105 6.95934416118421  6.02749794407895 6.95934416118421  C 6.09046052631579 6.95934416118421  6.15522203947368 6.93595805921053  6.20379317434211 6.88558799342105  L 6.87659333881579 6.20918996710526  C 6.92336554276316 6.16241776315789  6.95034950657895 6.09945518092105  6.95034950657895 6.03289473684211  Z " fill-rule="nonzero" fill="#333333" stroke="none" transform="matrix(1 0 0 1 626 146 )" />
  </g>
</svg>