<?xml version="1.0" encoding="utf-8"?>
<svg version="1.1" xmlns:xlink="http://www.w3.org/1999/xlink" width="16px" height="16px" viewBox="405 2099.5  16 16" xmlns="http://www.w3.org/2000/svg">
  <path d="M 413 2099.5  C 417.48 2099.5  421 2103.02  421 2107.5  C 421 2111.98  417.48 2115.5  413 2115.5  C 408.52 2115.5  405 2111.98  405 2107.5  C 405 2103.02  408.52 2099.5  413 2099.5  Z " fill-rule="nonzero" fill="#f0f0f0" stroke="none" />
  <path d="M 413 2100  C 417.2 2100  420.5 2103.3  420.5 2107.5  C 420.5 2111.7  417.2 2115  413 2115  C 408.8 2115  405.5 2111.7  405.5 2107.5  C 405.5 2103.3  408.8 2100  413 2100  Z " stroke-width="1" stroke="#797979" fill="none" />
  <path d="M 413 2111.5  C 410.76 2111.5  409 2109.74  409 2107.5  C 409 2105.26  410.76 2103.5  413 2103.5  C 415.24 2103.5  417 2105.26  417 2107.5  C 417 2109.74  415.24 2111.5  413 2111.5  " fill-rule="nonzero" fill="#797979" stroke="none" />
</svg>