<?xml version="1.0" encoding="utf-8"?>
<svg version="1.1" xmlns:xlink="http://www.w3.org/1999/xlink" width="16px" height="16px" viewBox="341 392  16 16" xmlns="http://www.w3.org/2000/svg">
  <path d="M 349 392  C 353.48 392  357 395.52  357 400  C 357 404.48  353.48 408  349 408  C 344.52 408  341 404.48  341 400  C 341 395.52  344.52 392  349 392  Z " fill-rule="nonzero" fill="#ffffff" stroke="none" />
  <path d="M 349 392.5  C 353.2 392.5  356.5 395.8  356.5 400  C 356.5 404.2  353.2 407.5  349 407.5  C 344.8 407.5  341.5 404.2  341.5 400  C 341.5 395.8  344.8 392.5  349 392.5  Z " stroke-width="1" stroke="#797979" fill="none" />
  <path d="M 349 404  C 346.76 404  345 402.24  345 400  C 345 397.76  346.76 396  349 396  C 351.24 396  353 397.76  353 400  C 353 402.24  351.24 404  349 404  " fill-rule="nonzero" fill="#797979" stroke="none" />
</svg>