<?xml version="1.0" encoding="utf-8"?>
<svg version="1.1" xmlns:xlink="http://www.w3.org/1999/xlink" width="16px" height="16px" viewBox="266 392  16 16" xmlns="http://www.w3.org/2000/svg">
  <path d="M 274 392  C 278.48 392  282 395.52  282 400  C 282 404.48  278.48 408  274 408  C 269.52 408  266 404.48  266 400  C 266 395.52  269.52 392  274 392  Z " fill-rule="nonzero" fill="#ffffff" stroke="none" />
  <path d="M 274 392.5  C 278.2 392.5  281.5 395.8  281.5 400  C 281.5 404.2  278.2 407.5  274 407.5  C 269.8 407.5  266.5 404.2  266.5 400  C 266.5 395.8  269.8 392.5  274 392.5  Z " stroke-width="1" stroke="#797979" fill="none" />
  <path d="M 274 404  C 271.76 404  270 402.24  270 400  C 270 397.76  271.76 396  274 396  C 276.24 396  278 397.76  278 400  C 278 402.24  276.24 404  274 404  " fill-rule="nonzero" fill="#797979" stroke="none" />
</svg>