<?xml version="1.0" encoding="utf-8"?>
<svg version="1.1" xmlns:xlink="http://www.w3.org/1999/xlink" width="16px" height="16px" viewBox="401 1477  16 16" xmlns="http://www.w3.org/2000/svg">
  <path d="M 409 1477  C 413.48 1477  417 1480.52  417 1485  C 417 1489.48  413.48 1493  409 1493  C 404.52 1493  401 1489.48  401 1485  C 401 1480.52  404.52 1477  409 1477  Z " fill-rule="nonzero" fill="#ffffff" stroke="none" />
  <path d="M 409 1477.5  C 413.2 1477.5  416.5 1480.8  416.5 1485  C 416.5 1489.2  413.2 1492.5  409 1492.5  C 404.8 1492.5  401.5 1489.2  401.5 1485  C 401.5 1480.8  404.8 1477.5  409 1477.5  Z " stroke-width="1" stroke="#797979" fill="none" />
  <path d="M 409 1489  C 406.76 1489  405 1487.24  405 1485  C 405 1482.76  406.76 1481  409 1481  C 411.24 1481  413 1482.76  413 1485  C 413 1487.24  411.24 1489  409 1489  " fill-rule="nonzero" fill="#797979" stroke="none" />
</svg>