<?xml version="1.0" encoding="utf-8"?>
<svg version="1.1" xmlns:xlink="http://www.w3.org/1999/xlink" width="19px" height="16px" xmlns="http://www.w3.org/2000/svg">
  <g transform="matrix(1 0 0 1 -819 -116 )">
    <path d="M 14.25 15.8769230769231  L 3.8095 15.8769230769231  C 1.71 15.8769230769231  0 14.0455384615385  0 11.8006153846154  C 0 10.4418461538462  0.6365 9.22092307692308  1.615 8.48246153846154  C 1.5105 8.10830769230769  1.4535 7.71446153846154  1.4535 7.32061538461539  C 1.4535 5.07569230769231  3.1635 3.25415384615385  5.2535 3.25415384615385  C 5.4055 3.25415384615385  5.5575 3.264  5.7095 3.27384615384616  C 6.8305 1.344  8.816 0.123076923076925  11.001 0.123076923076925  C 14.4305 0.123076923076925  17.2235 3.12615384615385  17.233 6.80861538461539  C 18.3445 7.76369230769231  19 9.21107692307693  19 10.7864615384615  C 19 13.5926153846154  16.872 15.8769230769231  14.25 15.8769230769231  Z M 1.425 11.8006153846154  C 1.425 13.2381538461538  2.489 14.4  3.8095 14.4  L 14.25 14.4  C 16.0835 14.4  17.575 12.7753846153846  17.575 10.7864615384615  C 17.575 9.45723076923077  16.91 8.28553846153846  15.9315 7.65538461538461  C 15.694 7.51753846153846  15.808 7.36984615384615  15.808 6.82830769230769  C 15.808 3.94338461538461  13.6515 1.6  11.001 1.6  C 8.9965 1.6  7.277 2.93907692307692  6.555 4.83938461538461  C 6.498 4.99692307692308  6.3935 5.03630769230769  6.251 4.95753846153846  C 5.947 4.80984615384615  5.6145 4.73107692307692  5.2535 4.73107692307692  C 3.9425 4.73107692307692  2.8785 5.88307692307692  2.8785 7.32061538461538  C 2.8785 7.96061538461538  3.0875 8.54153846153846  3.439 8.99446153846154  C 3.553 9.14215384615384  3.5245 9.22092307692307  3.344 9.26030769230769  C 2.2515 9.48676923076923  1.425 10.5403076923077  1.425 11.8006153846154  Z M 10.241 12.2141538461538  C 10.1175 12.352  9.937 12.4307692307692  9.7375 12.4307692307692  C 9.538 12.4307692307692  9.3575 12.352  9.2245 12.2141538461538  C 9.101 12.0861538461538  9.025 11.8990769230769  9.025 11.6923076923077  L 9.025 7.57661538461539  L 7.391 9.26030769230769  C 7.258 9.39815384615385  7.0775 9.47692307692308  6.897 9.47692307692308  C 6.7165 9.47692307692308  6.5265 9.408  6.384 9.25046153846154  C 6.251 9.10276923076923  6.175 8.91569230769231  6.175 8.72861538461539  C 6.175 8.54153846153847  6.251 8.35446153846154  6.384 8.21661538461539  L 9.234 5.27261538461539  C 9.329 5.17415384615385  9.5095 5.04615384615385  9.7375 5.04615384615385  C 9.918 5.04615384615385  10.0985 5.13476923076923  10.241 5.27261538461539  L 13.091 8.21661538461539  C 13.2335 8.35446153846154  13.3 8.55138461538462  13.3 8.73846153846154  C 13.3 8.91569230769231  13.2335 9.09292307692308  13.11 9.23076923076923  C 12.9675 9.38830769230769  12.7775 9.47692307692308  12.5875 9.47692307692308  C 12.407 9.47692307692308  12.2265 9.39815384615385  12.0935 9.26030769230769  L 10.45 7.57661538461539  L 10.45 11.6923076923077  C 10.45 11.8990769230769  10.3645 12.0763076923077  10.241 12.2141538461538  Z " fill-rule="nonzero" fill="#85b781" stroke="none" transform="matrix(1 0 0 1 819 116 )" />
  </g>
</svg>