<?xml version="1.0" encoding="utf-8"?>
<svg version="1.1" xmlns:xlink="http://www.w3.org/1999/xlink" width="16px" height="16px" viewBox="405 2065.5  16 16" xmlns="http://www.w3.org/2000/svg">
  <path d="M 413 2065.5  C 417.48 2065.5  421 2069.02  421 2073.5  C 421 2077.98  417.48 2081.5  413 2081.5  C 408.52 2081.5  405 2077.98  405 2073.5  C 405 2069.02  408.52 2065.5  413 2065.5  Z " fill-rule="nonzero" fill="#ffffff" stroke="none" />
  <path d="M 413 2066  C 417.2 2066  420.5 2069.3  420.5 2073.5  C 420.5 2077.7  417.2 2081  413 2081  C 408.8 2081  405.5 2077.7  405.5 2073.5  C 405.5 2069.3  408.8 2066  413 2066  Z " stroke-width="1" stroke="#797979" fill="none" />
  <path d="M 413 2077.5  C 410.76 2077.5  409 2075.74  409 2073.5  C 409 2071.26  410.76 2069.5  413 2069.5  C 415.24 2069.5  417 2071.26  417 2073.5  C 417 2075.74  415.24 2077.5  413 2077.5  " fill-rule="nonzero" fill="#797979" stroke="none" />
</svg>