<?xml version="1.0" encoding="utf-8"?>
<svg version="1.1" xmlns:xlink="http://www.w3.org/1999/xlink" width="16px" height="16px" viewBox="401 1509  16 16" xmlns="http://www.w3.org/2000/svg">
  <path d="M 409 1509  C 413.48 1509  417 1512.52  417 1517  C 417 1521.48  413.48 1525  409 1525  C 404.52 1525  401 1521.48  401 1517  C 401 1512.52  404.52 1509  409 1509  Z " fill-rule="nonzero" fill="#ffffff" stroke="none" />
  <path d="M 409 1509.5  C 413.2 1509.5  416.5 1512.8  416.5 1517  C 416.5 1521.2  413.2 1524.5  409 1524.5  C 404.8 1524.5  401.5 1521.2  401.5 1517  C 401.5 1512.8  404.8 1509.5  409 1509.5  Z " stroke-width="1" stroke="#797979" fill="none" />
  <path d="M 409 1521  C 406.76 1521  405 1519.24  405 1517  C 405 1514.76  406.76 1513  409 1513  C 411.24 1513  413 1514.76  413 1517  C 413 1519.24  411.24 1521  409 1521  " fill-rule="nonzero" fill="#797979" stroke="none" />
</svg>