<?xml version="1.0" encoding="utf-8"?>
<svg version="1.1" xmlns:xlink="http://www.w3.org/1999/xlink" width="15px" height="9px" xmlns="http://www.w3.org/2000/svg">
  <g transform="matrix(1 0 0 1 -132 -11 )">
    <path d="M 0.409872840224638 2.59785173182049  C -0.119027312598819 2.04459599973468  -0.153942481611618 1.04926511330281  0.409872840224638 0.460272766943525  C 0.973688162060887 -0.130043157722194  1.75863288764485 -0.176368398447077  2.44788418704559 0.460272766943525  L 7.50153161304576 5.41972068111938  L 12.5551790390459 0.460272766943525  C 13.2444303384467 -0.176368398447077  14.0306682184385 -0.130043157722194  14.5906040770511 0.460272766943525  C 15.1544193988874 1.04926511330281  15.1182110754667 2.04459599973469  14.5906040770511 2.59785173182049  C 14.0655833874513 3.1511074639063  8.51924413204835 8.5566012673475  8.51924413204835 8.5566012673475  C 8.23862962553811 8.85175922968036  7.87008061929193 9  7.50153161304576 9  C 7.13298260679958 9  6.76443360055341 8.85175922968036  6.4812327852274 8.5566012673475  C 6.4812327852274 8.5566012673475  0.937479838640211 3.1511074639063  0.409872840224638 2.59785173182049  Z " fill-rule="nonzero" fill="#333333" stroke="none" transform="matrix(1 0 0 1 132 11 )" />
  </g>
</svg>