<?xml version="1.0" encoding="utf-8"?>
<svg version="1.1" xmlns:xlink="http://www.w3.org/1999/xlink" width="18px" height="20px" xmlns="http://www.w3.org/2000/svg">
  <g transform="matrix(1 0 0 1 -6 -42 )">
    <path d="M 4.0144921875 7.19296874727845  C 5.0593359375 6.10820312268889  6.3882421875 5.36367187297059  7.8662109375 5.10742187306754  L 5.435859375 0.607031249770322  C 5.23259302844003 0.230446587878981  4.86637837019003 0  4.471171875 0  L 0.5635546875 0  C 0.10828125 0  -0.158203125 0.569140624784659  0.10265625 0.983593749627845  L 4.0144921875 7.19296874727845  Z M 17.89734375 0.983593749627845  C 18.158203125 0.569140624784659  17.89171875 0  17.4364453125 0  L 13.528828125 0  C 13.133671875 0  12.76734375 0.230468749912799  12.564140625 0.607031249770322  L 10.1337890625 5.10742187306754  C 11.6117578125 5.36367187297059  12.9406640625 6.10820312268889  13.9855078125 7.1925781222786  L 17.89734375 0.983593749627845  Z M 15.1875 13.124999995034  C 15.1875 9.32812499647059  12.4171875 6.24999999763524  9 6.24999999763524  C 5.5828125 6.24999999763524  2.8125 9.32812499647059  2.8125 13.124999995034  C 2.8125 16.9218749935974  5.5828125 19.9999999924328  9 19.9999999924328  C 12.4171875 19.9999999924328  15.1875 16.9218749935974  15.1875 13.124999995034  Z M 9 13.124999995034  L 9 19.9999999924328  C 9.00004052056262 20.0002633760897  9 13.124999995034  9 13.124999995034  Z " fill-rule="nonzero" fill="#d4c278" stroke="none" transform="matrix(1 0 0 1 6 42 )" />
  </g>
</svg>