<?xml version="1.0" encoding="utf-8"?>
<svg version="1.1" xmlns:xlink="http://www.w3.org/1999/xlink" width="13px" height="8px" xmlns="http://www.w3.org/2000/svg">
  <g transform="matrix(1 0 0 1 -1408 -649 )">
    <path d="M 12.6447768718053 5.690798460604  C 13.1031570042523 6.18258133356916  13.1334168173967 7.06731989928639  12.6447768718053 7.59086865160575  C 12.1561369262139 8.11559391797528  11.4758514973745 8.15677190973074  10.8785003712272 7.59086865160575  L 6.49867260202701 3.18247050567166  L 2.11884483282686 7.59086865160575  C 1.52149370667955 8.15677190973074  0.840087544019963 8.11559391797528  0.354809799889032 7.59086865160575  C -0.133830145702388 7.06731989928639  -0.102449598737798 6.18258133356916  0.354809799889032 5.690798460604  C 0.809827730875534 5.19901558763884  5.6166550855581 0.394132206802222  5.6166550855581 0.394132206802222  C 5.85985432453364 0.131769573617459  6.17926346328032 0  6.49867260202701 0  C 6.8180817407737 0  7.13749087952038 0.131769573617459  7.38293158613626 0.394132206802222  C 7.38293158613626 0.394132206802222  12.1875174731785 5.19901558763884  12.6447768718053 5.690798460604  Z " fill-rule="nonzero" fill="#0000bf" stroke="none" transform="matrix(1 0 0 1 1408 649 )" />
  </g>
</svg>