<?xml version="1.0" encoding="utf-8"?>
<svg version="1.1" xmlns:xlink="http://www.w3.org/1999/xlink" width="13px" height="8px" xmlns="http://www.w3.org/2000/svg">
  <g transform="matrix(1 0 0 1 -1323 -649 )">
    <path d="M 0.355223128194686 2.30920153939599  C -0.103157004252309 1.81741866643083  -0.133416817396736 0.932680100713609  0.355223128194686 0.409131348394244  C 0.843863073786102 -0.115593917975284  1.52414850262553 -0.156771909730735  2.12149962877284 0.409131348394244  L 6.50132739797299 4.81752949432834  L 10.8811551671731 0.409131348394244  C 11.4785062933204 -0.156771909730735  12.15991245598 -0.115593917975284  12.645190200111 0.409131348394244  C 13.1338301457024 0.932680100713609  13.1024495987378 1.81741866643084  12.645190200111 2.30920153939599  C 12.1901722691245 2.80098441236115  7.3833449144419 7.60586779319778  7.3833449144419 7.60586779319778  C 7.14014567546636 7.86823042638254  6.82073653671968 8  6.50132739797299 8  C 6.18191825922631 8  5.86250912047962 7.86823042638254  5.61706841386375 7.60586779319778  C 5.61706841386375 7.60586779319778  0.812482526821516 2.80098441236115  0.355223128194686 2.30920153939599  Z " fill-rule="nonzero" fill="#d9001b" stroke="none" transform="matrix(1 0 0 1 1323 649 )" />
  </g>
</svg>