<?xml version="1.0" encoding="utf-8"?>
<svg version="1.1" xmlns:xlink="http://www.w3.org/1999/xlink" width="18px" height="18px" xmlns="http://www.w3.org/2000/svg">
  <g transform="matrix(1 0 0 1 -272 -255 )">
    <path d="M 17.4857142857143 15.2816326530612  C 18.1836734693878 14.730612244898  18.1469387755102 13.7020408163265  17.4489795918367 13.1877551020408  L 15.2081632653061 11.3877551020408  C 14.6938775510204 10.9836734693878  13.9591836734694 10.9469387755102  13.4448979591837 11.3510204081633  L 11.534693877551 12.7469387755102  C 11.3142857142857 12.930612244898  10.9836734693878 12.8938775510204  10.7632653061224 12.6734693877551  L 7.89795918367347 10.1020408163265  L 5.3265306122449 7.23673469387755  C 5.10612244897959 7.01632653061224  5.10612244897959 6.72244897959183  5.25306122448979 6.46530612244898  L 6.64897959183673 4.55510204081632  C 7.0530612244898 4.04081632653061  7.01632653061224 3.30612244897959  6.61224489795918 2.79183673469387  L 4.81224489795918 0.551020408163262  C 4.26122448979592 -0.110204081632656  3.26938775510204 -0.183673469387758  2.64489795918367 0.440816326530609  L 0.734693877551019 2.35102040816326  C 0.440816326530611 2.64489795918367  0.293877551020407 3.04897959183673  0.293877551020407 3.45306122448979  C 0.477551020408162 7.2  2.16734693877551 10.7632653061224  4.66530612244898 13.2612244897959  C 7.16326530612245 15.7591836734694  10.7265306122449 17.4489795918367  14.4734693877551 17.6326530612245  C 14.8775510204082 17.669387755102  15.2816326530612 17.4857142857143  15.5755102040816 17.1918367346939  L 17.4857142857143 15.2816326530612  Z " fill-rule="nonzero" fill="#333333" stroke="none" transform="matrix(1 0 0 1 272 255 )" />
  </g>
</svg>