<?xml version="1.0" encoding="utf-8"?>
<svg version="1.1" xmlns:xlink="http://www.w3.org/1999/xlink" width="18px" height="18px" xmlns="http://www.w3.org/2000/svg">
  <g transform="matrix(1 0 0 1 -306 -255 )">
    <path d="M 17.9819196428571 9.19736842105263  C 17.9859375 7.99539473684211  17.7488839285714 6.82894736842105  17.2828125 5.73157894736842  C 16.8320919887671 4.6747205987958  16.1763832328039 3.714110922316  15.3522321428571 2.90328947368421  C 14.5305453637954 2.09105561501807  13.5544833396221 1.44528119666914  12.4794642857143 1.00263157894737  C 11.3781951069988 0.546970138490754  10.1949463161144 0.3133982366558  9 0.315789473684211  L 8.95982142857143 0.315789473684211  C 7.74441964285714 0.321710526315789  6.56919642857143 0.558552631578947  5.46227678571429 1.02434210526316  C 4.39648130735413 1.47152945963962  3.42958283398019 2.11845084657183  2.615625 2.92894736842105  C 1.79945897551798 3.73794841926108  1.15126088296753 4.69519874363919  0.707142857142857 5.74736842105263  C 0.246123984288283 6.84150489256661  0.0125237704779408 8.01518599144012  0.0200892857142857 9.19934210526316  C 0.0261160714285714 10.5690789473684  0.359598214285714 11.9289473684211  0.982366071428572 13.1447368421053  L 0.982366071428572 16.1447368421053  C 0.982366071428572 16.6460526315789  1.39620535714286 17.0526315789474  1.90446428571429 17.0526315789474  L 4.95401785714286 17.0526315789474  C 6.19729155253485 17.668982401157  7.56925729791493 17.993288246787  8.96183035714286 18  L 9.00401785714286 18  C 10.2053571428571 18  11.3685267857143 17.7710526315789  12.4654017857143 17.3230263157895  C 13.5349816565222 16.8856558772969  14.5073985944962 16.2474103642495  15.328125 15.4440789473684  C 16.1558035714286 14.6368421052632  16.8066964285714 13.6934210526316  17.2627232142857 12.6414473684211  C 17.7348214285714 11.5519736842105  17.9758928571429 10.3934210526316  17.9819196428571 9.19736842105263  Z M 5.95245535714286 9.15789473684211  C 5.95245535714286 9.68092105263158  5.52254464285714 10.1052631578947  4.99017857142857 10.1052631578947  C 4.45982142857143 10.1052631578947  4.02790178571429 9.68092105263158  4.02790178571429 9.15789473684211  C 4.02790178571429 8.63486842105263  4.45982142857143 8.21052631578947  4.99017857142857 8.21052631578947  C 5.52053571428571 8.21052631578947  5.95245535714286 8.63486842105263  5.95245535714286 9.15789473684211  Z M 9.96227678571429 9.15789473684211  C 9.96227678571429 9.68092105263158  9.53035714285714 10.1052631578947  9 10.1052631578947  C 8.46964285714286 10.1052631578947  8.03772321428571 9.68092105263158  8.03772321428571 9.15789473684211  C 8.03772321428571 8.63486842105263  8.46964285714286 8.21052631578947  9 8.21052631578947  C 9.53035714285714 8.21052631578947  9.96227678571429 8.63486842105263  9.96227678571429 9.15789473684211  Z M 13.9720982142857 9.15789473684211  C 13.9720982142857 9.68092105263158  13.5401785714286 10.1052631578947  13.0098214285714 10.1052631578947  C 12.4794642857143 10.1052631578947  12.0475446428571 9.68092105263158  12.0475446428571 9.15789473684211  C 12.0475446428571 8.63486842105263  12.4794642857143 8.21052631578947  13.0098214285714 8.21052631578947  C 13.5401785714286 8.21052631578947  13.9720982142857 8.63486842105263  13.9720982142857 9.15789473684211  Z " fill-rule="nonzero" fill="#333333" stroke="none" transform="matrix(1 0 0 1 306 255 )" />
  </g>
</svg>